<svg version="1.1" id="Layer_1" xmlns="http://www.w3.org/2000/svg" xmlns:xlink="http://www.w3.org/1999/xlink" x="0px" y="0px"
	 width="100%" viewBox="0 0 1024 1024" enable-background="new 0 0 1024 1024" xml:space="preserve">
<path fill="#03A9F4" opacity="1.000000" stroke="none" 
	d="
M584.000000,1025.000000 
	C389.333344,1025.000000 195.166672,1025.000000 1.000000,1025.000000 
	C1.000000,683.666687 1.000000,342.333344 1.000000,1.000000 
	C342.333344,1.000000 683.666687,1.000000 1025.000000,1.000000 
	C1025.000000,342.333344 1025.000000,683.666687 1025.000000,1025.000000 
	C878.166687,1025.000000 731.333313,1025.000000 584.000000,1025.000000 
M418.988525,817.987854 
	C418.988525,817.987854 418.795837,817.987244 419.236542,817.639709 
	C419.488739,817.364014 419.740936,817.088379 419.991302,816.992371 
	C419.991302,816.992371 419.811646,816.990051 420.247345,816.649536 
	C420.497437,816.379578 420.747528,816.109558 421.008331,815.996033 
	C421.008331,815.996033 420.851868,816.007141 421.259003,815.651123 
	C421.490143,815.375732 421.721283,815.100342 422.242065,814.235901 
	C428.835693,807.971313 435.273773,801.532043 442.063507,795.487793 
	C450.004150,788.419006 459.294647,784.077942 470.750336,783.569946 
	C472.897858,783.721558 475.045380,784.005432 477.192932,784.005859 
	C576.320557,784.024963 675.448120,784.043213 774.575684,783.971741 
	C782.709839,783.965881 790.843628,783.329102 799.788879,782.943787 
	C809.419922,780.613403 819.071167,778.360962 828.661987,775.875305 
	C830.245117,775.464966 831.563416,774.033203 833.338135,772.894714 
	C833.338135,772.894714 833.716309,772.916992 834.534485,772.947205 
	C836.659973,771.906799 838.785461,770.866333 840.910095,769.900085 
	C840.910095,769.900085 840.836243,769.893738 841.583679,769.933533 
	C842.718079,769.280090 843.852539,768.626709 844.990906,768.008179 
	C844.990906,768.008179 844.965027,767.983276 845.527954,767.835449 
	C846.015015,767.537720 846.502075,767.240051 846.985168,767.002075 
	C846.985168,767.002075 846.935913,766.968140 847.711914,766.962769 
	C850.119751,765.560913 852.527527,764.159119 854.927856,762.879150 
	C854.927856,762.879150 854.806458,762.866089 855.513855,762.887024 
	C856.327087,762.224548 857.140259,761.562073 857.955383,760.968567 
	C857.955383,760.968567 857.889221,760.949097 858.496704,760.811401 
	C858.995544,760.455261 859.494385,760.099182 859.929993,759.901733 
	C859.929993,759.901733 859.773132,759.834106 860.492981,759.874390 
	C861.295593,759.188110 862.098206,758.501831 862.903503,757.898560 
	C862.903503,757.898560 862.820557,757.895508 863.411926,757.818420 
	C863.938782,757.288391 864.465698,756.758362 865.316345,755.968567 
	C865.316345,755.968567 865.729126,755.924866 866.189087,755.652344 
	C866.456055,755.417847 866.722961,755.183411 866.991089,755.005249 
	C866.991089,755.005249 866.943298,754.975281 867.533508,754.815674 
	C868.021240,754.461548 868.509033,754.107483 869.003357,753.978333 
	C869.003357,753.978333 868.778259,753.984375 869.215088,753.646790 
	C869.461731,753.376099 869.708374,753.105347 870.129211,752.380188 
	C870.342346,752.091309 870.627563,751.964417 871.560242,751.825745 
	C872.041138,751.479492 872.522034,751.133240 873.001404,750.989746 
	C873.001404,750.989746 872.798645,750.987671 873.238464,750.642761 
	C873.489258,750.367676 873.740051,750.092590 873.989441,749.988831 
	C873.989441,749.988831 873.818115,749.987000 874.248108,749.669006 
	C874.496277,749.414551 874.744507,749.160156 874.975525,748.975586 
	C874.975525,748.975586 874.906067,748.957031 875.514587,748.801208 
	C875.965393,748.384277 876.416260,747.967346 876.777893,747.754272 
	C876.777893,747.754272 876.579407,747.653687 877.276733,747.637329 
	C877.821472,746.995728 878.366211,746.354126 879.046936,745.304443 
	C879.244995,745.069092 879.497803,744.949768 880.244507,744.633423 
	C880.497620,744.377808 880.750732,744.122253 881.006165,744.005310 
	C881.006165,744.005310 880.867554,744.008057 881.267578,743.658325 
	C881.499817,743.392395 881.732056,743.126465 882.169556,742.331299 
	C882.764832,741.884338 883.360168,741.437378 884.684753,740.950684 
	C888.249451,739.676819 891.431946,738.065125 891.421387,733.470276 
	C891.421387,733.470276 891.454590,733.619629 892.029663,733.376282 
	C892.338867,732.867554 892.648071,732.358887 893.166016,731.302612 
	C894.007568,730.504578 894.849060,729.706482 896.377808,728.760559 
	C896.905640,727.815552 897.433472,726.870544 897.987122,725.985229 
	C897.987122,725.985229 897.922241,725.989807 898.310913,725.631836 
	C898.521057,725.350037 898.731201,725.068237 899.022827,724.368835 
	C899.153687,724.080383 899.377136,723.925781 900.383179,723.756592 
	C900.901733,722.801453 901.420349,721.846313 901.966125,720.968872 
	C901.966125,720.968872 901.887817,720.994385 902.299377,720.633545 
	C902.522278,720.344788 902.745178,720.055969 902.905884,719.920959 
	C902.905884,719.920959 902.753906,719.854675 903.441833,719.724854 
	C903.932373,718.769165 904.422974,717.813538 904.924377,716.929077 
	C904.924377,716.929077 904.852356,716.926086 905.524475,716.752502 
	C905.980652,715.779785 906.436829,714.807129 906.900513,713.907288 
	C906.900513,713.907288 906.827332,713.903137 907.560303,713.798584 
	C908.349121,712.158691 909.137878,710.518799 909.958679,708.967285 
	C909.958679,708.967285 909.869690,708.997314 910.278748,708.612366 
	C910.489868,708.303406 910.701050,707.994446 910.809143,707.874390 
	C910.809143,707.874390 910.623840,707.765076 911.374451,707.636963 
	C911.884338,706.320679 912.394226,705.004395 912.919922,703.073486 
	C913.325134,702.376099 913.730347,701.678711 914.451294,700.619080 
	C914.626587,700.350647 914.790222,700.075317 914.939514,699.238525 
	C915.205383,698.798340 915.471191,698.358215 916.427979,697.762085 
	C917.185730,696.726379 918.151978,695.785156 918.670349,694.640991 
	C927.883606,674.305725 931.891479,652.736877 931.876343,630.638855 
	C931.803772,524.781921 931.464355,418.924530 930.792969,313.069946 
	C930.732910,303.591278 927.660522,294.123230 925.848022,284.676910 
	C925.661133,283.702759 924.518738,282.911896 923.925964,282.053589 
	C923.925964,282.053589 923.904785,282.159149 923.939880,281.328430 
	C922.986267,278.886444 922.032715,276.444458 920.697876,273.384064 
	C920.284912,272.490234 919.832520,271.612335 919.464722,270.700287 
	C910.564026,248.629395 897.177856,229.830338 879.007629,214.369843 
	C865.764526,203.101746 850.785278,194.857941 834.550659,187.548370 
	C834.013306,187.375839 833.475891,187.203293 832.986511,186.996857 
	C832.986511,186.996857 832.988525,187.055557 832.518433,186.641617 
	C831.917664,186.493591 831.316895,186.345566 830.912842,186.100677 
	C830.912842,186.100677 831.005005,186.299576 830.491760,185.794907 
	C829.587158,185.582062 828.682495,185.369217 827.921875,185.138947 
	C827.921875,185.138947 827.932861,185.283569 827.601074,184.621994 
	C826.331909,183.899261 825.144714,182.899323 823.781067,182.496155 
	C807.904663,177.802231 791.641846,175.089981 775.120850,175.079315 
	C599.538391,174.965958 423.955902,174.999908 248.373428,175.055847 
	C242.070602,175.057846 235.758972,175.599503 229.471741,176.130142 
	C227.937378,176.259659 226.483398,177.341492 224.427689,178.254410 
	C224.011658,178.277664 223.595612,178.300903 222.690292,177.838791 
	C221.457718,178.210770 220.225159,178.582733 218.372238,179.142731 
	C217.940903,179.143829 217.509552,179.144943 216.597855,178.758621 
	C215.060211,179.229370 213.522583,179.700119 212.010757,180.049927 
	C212.010757,180.049927 212.131302,180.077637 211.446991,180.063339 
	C210.626190,180.384583 209.805389,180.705826 208.408997,181.508881 
	C189.555786,186.537247 171.599411,193.836716 156.308945,206.037048 
	C145.623154,214.563263 136.189255,224.658447 125.763756,234.403656 
	C125.516159,234.679382 125.268555,234.955109 125.049416,234.989258 
	C125.049416,234.989258 125.290871,235.018646 124.834396,235.431320 
	C124.560112,235.969986 124.285828,236.508652 123.855980,237.667160 
	C122.674736,239.138626 121.493492,240.610092 119.846489,242.394852 
	C119.579628,242.655853 119.312767,242.916855 119.020119,243.611557 
	C119.020119,243.611557 118.863449,244.016800 118.542305,244.390198 
	C118.369843,244.670166 118.212402,244.958328 117.865715,245.757889 
	C117.536934,246.177414 117.208153,246.596939 116.536026,247.468323 
	C116.381462,247.815475 116.226906,248.162613 116.146851,248.791519 
	C116.146851,248.791519 115.945030,249.001785 115.590218,249.351532 
	C115.383614,249.613083 115.191261,249.884720 115.003143,250.010147 
	C115.003143,250.010147 115.159454,250.000504 114.736229,250.344482 
	C114.489182,250.610886 114.242134,250.877289 114.025238,250.996704 
	C114.025238,250.996704 114.172142,251.027298 113.548355,251.384048 
	C113.088928,252.667999 112.629501,253.951965 112.095093,255.067383 
	C112.095093,255.067383 112.265480,254.996674 111.804581,255.451172 
	C111.579216,256.039185 111.353859,256.627167 111.056427,257.050659 
	C111.056427,257.050659 111.222099,256.981293 110.774567,257.458740 
	C110.540970,258.055725 110.307373,258.652679 110.063255,259.870117 
	C109.673210,260.586060 109.283173,261.302002 108.564590,262.393738 
	C108.384583,262.674255 108.220253,262.963654 108.083923,263.659302 
	C108.083923,263.659302 107.905128,264.014374 107.561295,264.446045 
	C107.404030,264.779358 107.246765,265.112640 107.150780,265.751923 
	C107.150780,265.751923 106.953125,265.993408 106.297241,266.257874 
	C105.896576,267.557037 105.495903,268.856201 105.078186,270.047302 
	C105.078186,270.047302 105.186790,270.033936 104.538994,270.402924 
	C104.089233,272.018280 103.639481,273.633606 103.173515,275.091949 
	C103.173515,275.091949 103.331131,275.083618 102.660995,275.408020 
	C102.119072,276.209900 101.385994,276.941895 101.063652,277.824005 
	C95.463593,293.149445 93.080711,309.133026 93.101509,325.296234 
	C93.239548,432.576508 93.494453,539.857544 94.247864,647.134583 
	C94.322372,657.744141 97.975937,668.334595 100.080650,678.911560 
	C100.237831,679.701477 101.304214,680.310547 102.146935,681.273132 
	C102.146935,681.273132 102.093666,681.603882 102.070236,682.429871 
	C103.021141,684.619202 103.972038,686.808533 105.111664,689.326477 
	C105.111664,689.326477 105.081963,689.704224 105.056099,690.498230 
	C106.012054,692.333008 106.968018,694.167725 108.126167,696.298706 
	C108.126167,696.298706 108.099472,696.656311 108.192909,697.323914 
	C108.538895,697.889465 108.884880,698.455078 109.009789,698.979309 
	C109.009789,698.979309 109.051880,698.758362 109.292603,699.202087 
	C109.497368,699.465820 109.702126,699.729553 110.227562,700.520691 
	C110.512131,701.254089 110.796700,701.987549 111.190857,703.376709 
	C111.559715,703.916199 111.928581,704.455688 112.100098,704.901306 
	C112.100098,704.901306 112.198631,704.706238 112.263306,705.368591 
	C112.672600,705.864807 113.081894,706.361084 113.247299,707.046875 
	C113.247299,707.046875 113.057159,706.803406 113.436020,707.283447 
	C113.696671,707.610901 113.957321,707.938354 114.801590,708.540955 
	C121.861275,720.638977 130.027985,732.059265 140.804245,740.947693 
	C151.710236,749.943176 163.703201,757.620728 175.110199,766.295471 
	C175.790619,766.497864 176.471039,766.700195 177.035583,766.940796 
	C177.035583,766.940796 177.000046,766.824097 177.441864,767.270264 
	C178.019333,767.480286 178.596786,767.690308 179.055237,767.914062 
	C179.055237,767.914062 179.045654,767.794617 179.388245,768.437500 
	C180.695236,768.868774 182.002228,769.300049 183.130615,769.845642 
	C183.130615,769.845642 183.022614,769.663147 183.509003,770.178223 
	C184.387634,770.438599 185.266266,770.698975 186.598526,770.957520 
	C186.598526,770.957520 187.017136,771.132263 187.411987,771.450867 
	C187.712341,771.606384 188.012695,771.761841 188.681747,771.891663 
	C188.681747,771.891663 189.004242,772.072205 189.419083,772.382935 
	C189.746506,772.495667 190.073944,772.608459 190.172958,772.728333 
	C190.172958,772.728333 190.178818,772.499878 190.536514,773.151672 
	C192.129303,773.974976 193.636078,775.174927 195.328613,775.561340 
	C207.927383,778.437744 220.548752,781.220703 233.196640,783.872742 
	C236.525909,784.570923 241.710281,783.548950 242.937042,785.388245 
	C244.561966,787.824524 243.089645,792.295776 243.026749,795.893799 
	C242.672501,816.156189 242.339615,836.418884 242.003754,856.681580 
	C241.780746,870.135010 241.205475,883.597351 241.532394,897.037598 
	C241.654053,902.039551 243.894104,906.989990 245.070374,911.945618 
	C245.070374,911.945618 245.092300,911.848572 245.063721,912.636292 
	C246.076736,914.408325 247.089737,916.180359 248.033493,917.959900 
	C248.033493,917.959900 248.057938,917.894653 248.072144,918.653564 
	C249.216248,919.955322 250.360367,921.257080 251.421371,922.756531 
	C251.421371,922.756531 251.449158,922.543823 251.352600,923.289368 
	C253.220840,924.864868 255.089081,926.440369 257.512024,928.141357 
	C258.037598,928.669556 258.563141,929.197693 259.263947,930.425537 
	C260.519379,930.945801 261.774811,931.466125 263.006805,932.007629 
	C263.006805,932.007629 263.008789,931.976868 263.214233,932.651733 
	C264.087128,933.358521 264.855957,934.309265 265.849579,934.733093 
	C273.126770,937.837708 280.821564,938.002686 288.240540,936.167480 
	C292.395386,935.139648 296.027069,931.997070 299.897125,929.885315 
	C299.897125,929.885315 299.819153,929.881714 300.570557,929.903442 
	C301.691071,928.860107 302.811554,927.816772 304.172363,926.226624 
	C305.086121,925.477173 305.999908,924.727783 307.509857,923.804871 
	C307.901398,923.347168 308.292969,922.889465 308.768555,922.678406 
	C308.768555,922.678406 308.517639,922.748535 309.024139,922.439636 
	C309.258087,922.124146 309.492065,921.808655 309.774139,921.730652 
	C309.774139,921.730652 309.534363,921.765015 310.044617,921.455811 
	C310.295105,921.149597 310.545593,920.843445 310.852753,920.787292 
	C310.852753,920.787292 310.600769,920.834290 311.097015,920.497620 
	C311.357269,920.194824 311.617493,919.892029 311.756683,919.769897 
	C311.756683,919.769897 311.582397,919.639771 312.317871,919.693726 
	C314.500458,917.390625 316.683075,915.087524 318.958282,912.917725 
	C318.958282,912.917725 318.823669,913.008423 319.235229,912.613708 
	C319.464081,912.311157 319.692932,912.008606 320.120941,911.213318 
	C320.672485,910.788391 321.224030,910.363464 322.226898,909.624451 
	C322.487976,909.367188 322.749084,909.109924 323.000824,909.009155 
	C323.000824,909.009155 322.844269,909.000122 323.265320,908.653198 
	C323.510437,908.384888 323.755524,908.116577 324.003235,908.000793 
	C324.003235,908.000793 323.850677,908.003845 324.260956,907.657349 
	C324.494049,907.387451 324.727173,907.117493 325.214355,906.274048 
	C326.463806,905.180298 327.713226,904.086548 329.547272,902.807190 
	C329.953369,902.368652 330.359467,901.930115 330.850220,901.750732 
	C330.850220,901.750732 330.588104,901.825500 331.087341,901.489441 
	C331.344116,901.182312 331.600922,900.875183 331.733154,900.742065 
	C331.733154,900.742065 331.566406,900.607910 332.307770,900.678589 
	C333.824463,899.044434 335.341156,897.410278 336.927917,895.918579 
	C336.927917,895.918579 336.783752,895.985168 337.226807,895.630493 
	C337.480377,895.350037 337.733917,895.069580 337.988342,894.987305 
	C337.988342,894.987305 337.790161,894.987488 338.231598,894.632568 
	C338.483612,894.351929 338.735626,894.071350 339.007782,893.984924 
	C339.007782,893.984924 338.813568,894.004639 339.230499,893.625244 
	C339.462311,893.330994 339.694092,893.036682 340.186798,892.187500 
	C341.398987,891.109375 342.611145,890.031250 344.250458,888.634094 
	C344.503296,888.383850 344.756104,888.133606 345.001678,888.008484 
	C345.001678,888.008484 344.876556,888.001587 345.277466,887.663147 
	C345.508362,887.402100 345.739227,887.141052 346.123505,886.428833 
	C346.315186,886.140015 346.584290,885.991394 347.525848,885.802246 
	C347.943115,885.361633 348.360382,884.921082 348.838074,884.767578 
	C348.838074,884.767578 348.548920,884.817383 349.052765,884.481567 
	C349.300018,884.164978 349.547272,883.848389 349.829559,883.798523 
	C349.829559,883.798523 349.561707,883.822876 350.066101,883.484802 
	C350.317535,883.169312 350.568970,882.853821 350.855743,882.817810 
	C350.855743,882.817810 350.575317,882.843933 351.081726,882.509338 
	C351.346771,882.205444 351.611847,881.901550 351.739899,881.768555 
	C351.739899,881.768555 351.575562,881.623657 352.315216,881.685120 
	C354.182739,879.703003 356.050293,877.720825 358.137665,875.196960 
	C359.016144,874.444336 359.894592,873.691650 361.217346,872.613464 
	C361.458893,872.338440 361.700470,872.063416 362.073181,871.367126 
	C362.252319,871.102051 362.501770,870.964050 363.245392,870.641357 
	C363.486938,870.388000 363.728485,870.134705 364.120972,869.438904 
	C364.306030,869.157288 364.566498,869.002869 365.296082,868.668152 
	C365.551331,868.451965 365.782684,868.212769 366.000305,868.002380 
	C366.000305,868.002380 365.954346,867.976074 366.680817,867.940735 
	C369.737305,864.883057 372.793762,861.825317 375.921112,858.912842 
	C375.921112,858.912842 375.774078,858.979919 376.220825,858.635742 
	C376.479828,858.364380 376.738861,858.093018 377.012604,857.993103 
	C377.012604,857.993103 376.841187,858.008118 377.248108,857.630188 
	C377.475677,857.339050 377.703278,857.047974 378.155365,856.213623 
	C379.038086,855.457703 379.920807,854.701782 381.233887,853.623718 
	C381.473755,853.358643 381.713593,853.093506 382.147308,852.310486 
	C382.713867,851.860168 383.280426,851.409912 384.258301,850.632874 
	C384.493073,850.373779 384.727814,850.114685 385.204620,849.276611 
	C386.451111,848.180176 387.697601,847.083740 389.693420,845.975098 
	C391.748260,843.908508 393.803070,841.841919 395.923950,839.921143 
	C395.923950,839.921143 395.776489,839.983459 396.222351,839.626465 
	C396.475800,839.342896 396.729248,839.059326 397.008331,838.979248 
	C397.008331,838.979248 396.804840,839.004639 397.222809,838.615845 
	C397.454285,838.315369 397.685760,838.014832 398.033661,837.308350 
	C398.212158,837.059082 398.454681,836.934387 399.204956,836.601746 
	C399.448181,836.324768 399.691406,836.047791 400.120117,835.264465 
	C400.671021,834.822876 401.221954,834.381287 402.213898,833.621948 
	C402.460999,833.358032 402.708069,833.094116 403.207214,832.256409 
	C404.459961,831.168579 405.712708,830.080750 407.710724,828.942688 
	C408.634644,827.791870 409.558563,826.641052 410.696381,825.611938 
	C410.696381,825.611938 410.567719,825.821777 411.074310,825.492126 
	C411.334412,825.186096 411.594513,824.880066 411.714813,824.737366 
	C411.714813,824.737366 411.559143,824.589172 412.297699,824.668579 
	C414.153503,822.707153 416.009277,820.745667 417.930115,818.924805 
	C417.930115,818.924805 417.787964,818.986389 418.230499,818.633911 
	C418.483124,818.354309 418.735748,818.074707 418.988525,817.987854 
z"/>
<path fill="#F5F5F5" opacity="1.000000" stroke="none"
	d="
M914.135498,700.981323 
	C913.730347,701.678711 913.325134,702.376099 912.628601,703.572754 
	C911.766113,705.303101 911.195007,706.534058 910.623840,707.765076 
	C910.623840,707.765076 910.809143,707.874390 910.575989,707.888062 
	C910.185120,708.266907 910.027344,708.632080 909.869629,708.997314 
	C909.869690,708.997314 909.958679,708.967285 909.660889,709.102417 
	C908.517822,710.792786 907.672607,712.347961 906.827393,713.903137 
	C906.827332,713.903137 906.900513,713.907288 906.619019,714.026489 
	C905.842468,715.072449 905.347412,715.999268 904.852356,716.926086 
	C904.852356,716.926086 904.924377,716.929077 904.640625,717.045044 
	C903.822510,718.058899 903.288208,718.956787 902.753906,719.854675 
	C902.753906,719.854675 902.905884,719.920959 902.661987,719.949097 
	C902.241394,720.316345 902.064636,720.655396 901.887817,720.994385 
	C901.887817,720.994385 901.966125,720.968872 901.679626,721.095337 
	C900.826477,722.116211 900.259827,723.010620 899.693176,723.905029 
	C899.377136,723.925781 899.153687,724.080383 898.738525,724.708496 
	C898.276917,725.362000 898.099548,725.675903 897.922241,725.989807 
	C897.922241,725.989807 897.987122,725.985229 897.702637,726.121704 
	C896.842224,727.141663 896.266418,728.025024 895.690552,728.908386 
	C894.849060,729.706482 894.007568,730.504578 892.797119,731.711060 
	C892.103699,732.619568 891.779114,733.119568 891.454590,733.619629 
	C891.454590,733.619629 891.421387,733.470276 891.112183,733.694885 
	C888.520508,736.276428 886.237976,738.633423 883.955444,740.990479 
	C883.360168,741.437378 882.764832,741.884338 881.815186,742.711670 
	C881.263062,743.397461 881.065308,743.702759 880.867554,744.008057 
	C880.867554,744.008057 881.006165,744.005310 880.737183,744.030334 
	C880.247192,744.352417 880.026245,744.649414 879.805298,744.946411 
	C879.497803,744.949768 879.244995,745.069092 878.702454,745.641357 
	C877.765076,746.536743 877.172241,747.095215 876.579407,747.653687 
	C876.579407,747.653687 876.777893,747.754272 876.512390,747.729370 
	C875.799988,748.121948 875.353027,748.539490 874.906067,748.957031 
	C874.906067,748.957031 874.975525,748.975586 874.712036,749.024414 
	C874.238403,749.377808 874.028198,749.682373 873.818115,749.986938 
	C873.818115,749.987000 873.989441,749.988831 873.710083,750.005249 
	C873.220093,750.343689 873.009399,750.665710 872.798645,750.987671 
	C872.798645,750.987671 873.001404,750.989746 872.704468,750.962524 
	C871.933350,751.290039 871.459106,751.644775 870.984863,751.999512 
	C870.627563,751.964417 870.342346,752.091309 869.771118,752.714233 
	C869.201416,753.360291 868.989868,753.672302 868.778259,753.984375 
	C868.778259,753.984375 869.003357,753.978333 868.696045,753.938843 
	C867.906921,754.257935 867.425110,754.616577 866.943237,754.975220 
	C866.943298,754.975281 866.991089,755.005249 866.717529,755.043945 
	C866.205688,755.363403 865.967407,755.644165 865.729126,755.924927 
	C865.729126,755.924866 865.316345,755.968567 864.879272,756.171143 
	C863.901733,756.880981 863.361145,757.388245 862.820557,757.895508 
	C862.820557,757.895508 862.903503,757.898560 862.594360,757.942810 
	C861.447815,758.602722 860.610474,759.218384 859.773132,759.834106 
	C859.773132,759.834106 859.929993,759.901733 859.650818,759.893921 
	C858.877502,760.240417 858.383362,760.594788 857.889221,760.949097 
	C857.889221,760.949097 857.955383,760.968567 857.643066,761.004395 
	C856.489380,761.648804 855.647949,762.257507 854.806519,762.866089 
	C854.806458,762.866089 854.927856,762.879150 854.580322,762.904175 
	C851.800476,764.275513 849.368164,765.621826 846.935913,766.968140 
	C846.935913,766.968140 846.985168,767.002075 846.695984,767.013550 
	C845.926208,767.344421 845.445618,767.663818 844.965027,767.983276 
	C844.965027,767.983276 844.990906,768.008179 844.649536,768.011780 
	C843.150818,768.641541 841.993530,769.267639 840.836243,769.893738 
	C840.836243,769.893738 840.910095,769.900085 840.549194,769.921875 
	C838.030884,770.934692 835.873596,771.925842 833.716309,772.916992 
	C833.716309,772.916992 833.338135,772.894714 832.791504,772.989441 
	C831.475586,773.376892 830.726501,773.750305 829.933777,773.950134 
	C819.273010,776.637817 808.606201,779.301331 797.493164,781.947021 
	C790.240784,782.279907 783.436157,782.942566 776.631165,782.947266 
	C677.755188,783.015320 578.879089,782.993286 480.003052,783.004028 
	C476.677521,783.004395 473.351990,783.121277 470.026459,783.183838 
	C459.294647,784.077942 450.004150,788.419006 442.063507,795.487793 
	C435.273773,801.532043 428.835693,807.971313 421.837646,814.646240 
	C421.239441,815.373413 421.045654,815.690308 420.851868,816.007141 
	C420.851868,816.007141 421.008331,815.996033 420.725159,816.015503 
	C420.231873,816.353394 420.021759,816.671692 419.811646,816.990051 
	C419.811646,816.990051 419.991302,816.992371 419.710999,817.003784 
	C419.219055,817.339172 419.007446,817.663208 418.795837,817.987244 
	C418.795837,817.987244 418.988525,817.987854 418.704407,817.994263 
	C418.209473,818.329163 417.998718,818.657776 417.787964,818.986389 
	C417.787964,818.986389 417.930115,818.924805 417.596680,818.998779 
	C415.361908,820.911560 413.460510,822.750366 411.559143,824.589172 
	C411.559143,824.589172 411.714813,824.737366 411.467468,824.744019 
	C411.002686,825.107788 410.785217,825.464783 410.567749,825.821777 
	C410.567719,825.821777 410.696381,825.611938 410.336548,825.731323 
	C408.972961,826.898132 407.969208,827.945496 406.965454,828.992920 
	C405.712708,830.080750 404.459961,831.168579 402.824402,832.657104 
	C402.218658,833.351746 401.995758,833.645691 401.772827,833.939697 
	C401.221954,834.381287 400.671021,834.822876 399.771179,835.643127 
	C399.201874,836.325928 398.981537,836.630066 398.761230,836.934265 
	C398.454681,836.934387 398.212158,837.059082 397.710602,837.650391 
	C397.193329,838.329834 396.999084,838.667236 396.804840,839.004639 
	C396.804840,839.004639 397.008331,838.979248 396.708038,838.979980 
	C396.197357,839.315002 395.986938,839.649231 395.776489,839.983459 
	C395.776489,839.983459 395.923950,839.921143 395.584290,839.982910 
	C393.144440,842.025513 391.044250,844.006409 388.944092,845.987305 
	C387.697601,847.083740 386.451111,848.180176 384.839050,849.683777 
	C384.264679,850.380493 384.055847,850.670105 383.846985,850.959656 
	C383.280426,851.409912 382.713867,851.860168 381.798584,852.686279 
	C381.234436,853.356689 381.018982,853.651306 380.803558,853.945862 
	C379.920807,854.701782 379.038086,855.457703 377.782166,856.616943 
	C377.219696,857.349548 377.030457,857.678833 376.841187,858.008118 
	C376.841187,858.008118 377.012604,857.993103 376.717468,858.000000 
	C376.206268,858.331299 375.990173,858.655579 375.774078,858.979919 
	C375.774078,858.979919 375.921112,858.912842 375.583618,858.991211 
	C372.148865,862.038452 369.051605,865.007263 365.954346,867.976074 
	C365.954346,867.976074 366.000305,868.002380 365.745239,868.062256 
	C365.294250,868.406677 365.098297,868.691162 364.902344,868.975647 
	C364.566498,869.002869 364.306030,869.157288 363.790283,869.760864 
	C363.246918,870.372925 363.034210,870.663025 362.821503,870.953125 
	C362.501770,870.964050 362.252319,871.102051 361.746887,871.693848 
	C361.204773,872.326721 360.988922,872.632874 360.773071,872.939026 
	C359.894592,873.691650 359.016144,874.444336 357.726135,875.620178 
	C355.401581,877.903503 353.488586,879.763550 351.575562,881.623657 
	C351.575562,881.623657 351.739899,881.768555 351.489563,881.769897 
	C351.017883,882.128784 350.796600,882.486389 350.575317,882.843933 
	C350.575317,882.843933 350.855743,882.817810 350.524750,882.778442 
	C349.983063,883.100281 349.772369,883.461609 349.561707,883.822876 
	C349.561707,883.822876 349.829559,883.798523 349.498962,883.763306 
	C348.961884,884.091248 348.755402,884.454285 348.548889,884.817383 
	C348.548920,884.817383 348.838074,884.767578 348.507385,884.718506 
	C347.761383,885.107300 347.346069,885.545166 346.930786,885.983032 
	C346.584290,885.991394 346.315186,886.140015 345.793701,886.761475 
	C345.268127,887.396667 345.072357,887.699097 344.876556,888.001587 
	C344.876556,888.001587 345.001678,888.008484 344.742920,888.042847 
	C344.263855,888.369202 344.043610,888.661194 343.823334,888.953125 
	C342.611145,890.031250 341.398987,891.109375 339.793274,892.599304 
	C339.204346,893.342285 339.008942,893.673462 338.813568,894.004639 
	C338.813568,894.004639 339.007782,893.984924 338.712891,893.989685 
	C338.208679,894.325439 337.999420,894.656433 337.790161,894.987488 
	C337.790161,894.987488 337.988342,894.987305 337.701721,894.989868 
	C337.204651,895.323364 336.994202,895.654297 336.783752,895.985168 
	C336.783752,895.985168 336.927917,895.918579 336.593323,895.985596 
	C334.694641,897.570984 333.130554,899.089478 331.566406,900.607910 
	C331.566406,900.607910 331.733154,900.742065 331.479492,900.747559 
	C331.013245,901.110535 330.800659,901.468018 330.588074,901.825500 
	C330.588104,901.825500 330.850220,901.750732 330.510284,901.712402 
	C329.767761,902.113647 329.365204,902.553223 328.962646,902.992798 
	C327.713226,904.086548 326.463806,905.180298 324.829071,906.673340 
	C324.246063,907.383057 324.048370,907.693420 323.850677,908.003845 
	C323.850677,908.003845 324.003235,908.000793 323.730499,908.026245 
	C323.253265,908.367859 323.048767,908.683960 322.844269,909.000122 
	C322.844269,909.000122 323.000824,909.009155 322.731567,909.024170 
	C322.233398,909.338928 322.004486,909.638733 321.775574,909.938538 
	C321.224030,910.363464 320.672485,910.788391 319.755920,911.599731 
	C319.201843,912.326843 319.012756,912.667664 318.823669,913.008423 
	C318.823669,913.008423 318.958282,912.917725 318.603149,912.983948 
	C316.026154,915.246704 313.804260,917.443237 311.582397,919.639771 
	C311.582397,919.639771 311.756683,919.769897 311.500031,919.768555 
	C311.029175,920.122864 310.814972,920.478577 310.600769,920.834290 
	C310.600769,920.834290 310.852753,920.787292 310.512299,920.748108 
	C309.959351,921.060974 309.746857,921.412964 309.534363,921.765015 
	C309.534363,921.765015 309.774139,921.730652 309.449219,921.714539 
	C308.922119,922.048462 308.719879,922.398499 308.517639,922.748535 
	C308.517639,922.748535 308.768555,922.678406 308.436554,922.667847 
	C307.707611,923.097717 307.310669,923.538086 306.913696,923.978394 
	C305.999908,924.727783 305.086121,925.477173 303.751404,926.630249 
	C302.160004,927.983154 300.989594,928.932434 299.819153,929.881714 
	C299.819153,929.881714 299.897125,929.885315 299.542236,929.931396 
	C287.494110,937.271240 275.421173,937.695435 263.008789,931.976868 
	C263.008789,931.976868 263.006805,932.007629 262.797913,931.753174 
	C261.422241,930.907776 260.255463,930.316833 259.088684,929.725830 
	C258.563141,929.197693 258.037598,928.669556 257.046692,927.813232 
	C254.870651,925.837952 253.159897,924.190918 251.449158,922.543823 
	C251.449158,922.543823 251.421371,922.756531 251.308640,922.370972 
	C250.149918,920.621826 249.103928,919.258240 248.057938,917.894653 
	C248.057938,917.894653 248.033493,917.959900 247.996246,917.615112 
	C247.003433,915.463135 246.047867,913.655823 245.092316,911.848572 
	C245.092300,911.848572 245.070374,911.945618 245.076523,911.544556 
	C244.398331,907.412354 243.087601,903.673950 243.130890,899.951233 
	C243.421204,874.988159 244.090820,850.029785 244.448624,825.067200 
	C244.648163,811.146057 244.484497,797.219788 244.484497,783.639221 
	C235.238968,782.397278 225.959763,781.650940 216.908371,779.794128 
	C207.879684,777.942017 199.079300,774.976990 190.178818,772.499878 
	C190.178818,772.499878 190.172958,772.728333 190.139969,772.476562 
	C189.739395,772.173889 189.371826,772.123047 189.004242,772.072205 
	C189.004242,772.072205 188.681747,771.891663 188.348633,771.673401 
	C187.682739,771.347534 187.349930,771.239868 187.017136,771.132263 
	C187.017136,771.132263 186.598526,770.957520 186.143829,770.698547 
	C184.800293,770.180786 183.911453,769.921936 183.022614,769.663147 
	C183.022614,769.663147 183.130615,769.845642 183.000397,769.524414 
	C181.595322,768.733704 180.320496,768.264160 179.045654,767.794617 
	C179.045654,767.794617 179.055237,767.914062 178.943115,767.636536 
	C178.220688,767.180664 177.610367,767.002380 177.000046,766.824097 
	C177.000046,766.824097 177.035583,766.940796 176.944366,766.670776 
	C176.308792,766.225708 175.764420,766.050659 175.220047,765.875610 
	C163.703201,757.620728 151.710236,749.943176 140.804245,740.947693 
	C130.027985,732.059265 121.861275,720.638977 114.412704,708.056519 
	C113.701599,707.315857 113.379372,707.059631 113.057152,706.803406 
	C113.057159,706.803406 113.247299,707.046875 113.301483,706.626953 
	C112.969978,705.706726 112.584305,705.206482 112.198624,704.706238 
	C112.198631,704.706238 112.100098,704.901306 112.150002,704.608276 
	C111.827026,703.783813 111.454140,703.252380 111.081261,702.720947 
	C110.796700,701.987549 110.512131,701.254089 110.062363,699.977661 
	C109.615402,699.209229 109.333633,698.983826 109.051880,698.758362 
	C109.051880,698.758362 109.009789,698.979309 109.067352,698.656616 
	C108.783089,697.774658 108.441277,697.215515 108.099464,696.656311 
	C108.099472,696.656311 108.126167,696.298706 107.994324,695.798828 
	C106.935646,693.434082 106.008804,691.569153 105.081963,689.704224 
	C105.081963,689.704224 105.111664,689.326477 105.016510,688.794495 
	C103.978790,686.042969 103.036224,683.823425 102.093658,681.603882 
	C102.093666,681.603882 102.146935,681.273132 102.057037,680.746460 
	C97.488945,665.717651 95.002449,650.914978 95.005669,635.700989 
	C95.026329,538.082336 95.169083,440.463287 94.901215,342.845398 
	C94.838013,319.814178 95.565094,297.057861 103.331131,275.083618 
	C103.331131,275.083618 103.173515,275.091949 103.454514,274.940186 
	C104.219276,273.203583 104.703033,271.618744 105.186790,270.033936 
	C105.186790,270.033936 105.078186,270.047302 105.365700,269.909912 
	C106.086517,268.512848 106.519821,267.253113 106.953125,265.993408 
	C106.953125,265.993408 107.150780,265.751923 107.366035,265.431427 
	C107.689240,264.745422 107.797188,264.379883 107.905128,264.014374 
	C107.905128,264.014374 108.083923,263.659302 108.315697,263.327515 
	C108.662689,262.669830 108.777908,262.343872 108.893127,262.017944 
	C109.283173,261.302002 109.673210,260.586060 110.331825,259.361511 
	C110.807632,258.229004 111.014870,257.605164 111.222107,256.981293 
	C111.222099,256.981293 111.056427,257.050659 111.368896,256.957886 
	C111.876076,256.242310 112.070786,255.619492 112.265488,254.996674 
	C112.265480,254.996674 112.095093,255.067383 112.417297,254.959030 
	C113.217041,253.576218 113.694588,252.301758 114.172134,251.027298 
	C114.172142,251.027298 114.025238,250.996704 114.284096,250.970856 
	C114.748459,250.630173 114.953957,250.315338 115.159454,250.000504 
	C115.159454,250.000504 115.003143,250.010147 115.263565,249.983887 
	C115.664345,249.639008 115.804688,249.320404 115.945038,249.001785 
	C115.945030,249.001785 116.146851,248.791519 116.360092,248.471313 
	C116.675354,247.772903 116.777367,247.394684 116.879379,247.016464 
	C117.208153,246.596939 117.536934,246.177414 118.203682,245.372528 
	C118.648918,244.663727 118.756180,244.340256 118.863449,244.016800 
	C118.863449,244.016800 119.020119,243.611557 119.297913,243.278885 
	C119.821220,242.657990 120.066742,242.369781 120.312256,242.081558 
	C121.493492,240.610092 122.674736,239.138626 124.176178,237.167542 
	C124.761215,236.118149 125.026047,235.568405 125.290871,235.018646 
	C125.290871,235.018646 125.049416,234.989258 125.328041,235.035675 
	C125.803177,234.738998 125.999680,234.395920 126.196198,234.052856 
	C136.189255,224.658447 145.623154,214.563263 156.308945,206.037048 
	C171.599411,193.836716 189.555786,186.537247 209.051727,181.278381 
	C210.506744,180.724457 211.319031,180.401047 212.131302,180.077637 
	C212.131302,180.077637 212.010757,180.049927 212.392593,180.073425 
	C214.209030,179.779984 215.643616,179.463013 217.078217,179.146057 
	C217.509552,179.144943 217.940903,179.143829 219.049500,179.085327 
	C220.877686,178.793335 222.028641,178.558746 223.179581,178.324158 
	C223.595612,178.300903 224.011658,178.277664 225.155670,178.145233 
	C230.506470,177.699799 235.129227,177.070816 239.752136,177.069519 
	C421.039429,177.018402 602.326721,177.022659 783.614014,177.042725 
	C785.935242,177.042984 788.307495,177.085922 790.569153,177.540604 
	C803.038635,180.047394 815.481140,182.688522 827.932861,185.283569 
	C827.932861,185.283569 827.921875,185.138947 828.069946,185.425568 
	C829.147034,185.907990 830.076050,186.103790 831.005005,186.299576 
	C831.005005,186.299576 830.912842,186.100677 831.009277,186.407852 
	C831.733276,186.828537 832.360901,186.942047 832.988525,187.055557 
	C832.988525,187.055557 832.986511,186.996857 833.155029,187.238800 
	C833.878174,187.623657 834.432922,187.766571 834.987610,187.909485 
	C850.785278,194.857941 865.764526,203.101746 879.007629,214.369843 
	C897.177856,229.830338 910.564026,248.629395 919.464722,270.700287 
	C919.832520,271.612335 920.284912,272.490234 920.884033,274.064148 
	C922.015076,277.215912 922.959900,279.687531 923.904785,282.159149 
	C923.904785,282.159149 923.925964,282.053589 923.916016,282.445862 
	C925.932556,296.068817 929.655334,309.291656 929.716614,322.531464 
	C930.199768,426.836670 930.007874,531.145142 929.920044,635.452515 
	C929.914917,641.581482 929.198364,647.731262 928.490479,653.833923 
	C926.705078,669.226990 921.874878,683.768616 915.737061,697.918030 
	C915.471191,698.358215 915.205383,698.798340 914.711365,699.644348 
	C914.367310,700.360535 914.251404,700.670898 914.135498,700.981323 
M419.015717,624.029053 
	C419.015717,624.029053 419.029297,624.247986 419.604706,624.039124 
	C419.803955,623.692993 420.003204,623.346863 420.062592,623.064514 
	C420.062592,623.064514 420.134613,623.200317 420.763062,622.793335 
	C421.490295,619.447266 422.819672,616.106628 422.849945,612.754272 
	C423.101715,584.869263 423.113892,556.982117 423.027985,529.026978 
	C423.027985,529.026978 422.963257,529.198975 423.913605,529.125183 
	C449.536407,528.963379 475.161163,528.923584 500.779938,528.510498 
	C504.698273,528.447327 508.588867,526.659790 512.501831,525.486694 
	C512.501831,525.486694 512.319275,525.470398 512.918091,525.295349 
	C513.107544,524.942078 513.296936,524.588745 513.396118,524.411316 
	C513.396118,524.411316 513.582031,524.478455 514.104431,523.958374 
	C514.744812,521.958862 515.919800,519.964844 515.940552,517.958984 
	C516.099548,502.545593 516.158203,487.127869 515.905823,471.717072 
	C515.867859,469.396423 514.052734,467.104889 512.916626,464.358978 
	C512.721680,464.078613 512.453796,463.949402 511.611267,463.351166 
	C508.728058,462.846832 505.850220,461.939728 502.960785,461.901245 
	C477.362915,461.560364 451.762939,461.376190 426.163727,461.129974 
	C425.223877,461.120972 424.285614,460.949158 423.018463,460.819672 
	C423.018463,458.720886 423.018402,456.919617 423.018494,455.118347 
	C423.019806,428.518402 423.179993,401.916443 422.843414,375.320770 
	C422.795441,371.533081 420.338287,367.775818 419.000000,364.000000 
	C419.000000,364.000000 418.995605,364.003632 418.752930,363.420746 
	C417.889099,362.857056 417.025238,362.293365 416.141571,361.828033 
	C416.141571,361.828033 416.241760,361.822632 415.803680,361.213440 
	C412.953094,360.527466 410.101440,359.251434 407.252136,359.256775 
	C394.285004,359.281036 381.312439,359.517029 368.357056,360.048401 
	C365.812469,360.152832 363.335236,361.899658 360.908417,362.908722 
	C360.908417,362.908722 360.888489,362.827301 360.257629,363.188751 
	C359.380585,365.284302 358.038147,367.313507 357.728088,369.489838 
	C357.166779,373.429535 357.060181,377.456329 357.044708,381.447815 
	C356.940857,408.276062 356.910980,435.104553 356.969025,461.940521 
	C356.969025,461.940521 356.969177,461.828369 356.041321,461.960052 
	C329.652985,461.963593 303.263977,461.882202 276.877411,462.101074 
	C274.216888,462.123138 271.571411,463.960358 268.977631,464.998322 
	C268.977631,464.998322 268.957916,464.928223 268.472687,465.119354 
	C268.334839,465.420227 268.196960,465.721069 267.474762,466.535217 
	C266.983978,468.578461 266.084717,470.618317 266.067810,472.665497 
	C265.944702,487.562744 265.933899,502.462097 266.075470,517.359009 
	C266.094360,519.347412 267.169128,521.325806 267.882935,523.123596 
	C267.882935,523.123596 267.688965,523.009338 267.745331,523.664551 
	C268.146667,524.148865 268.548004,524.633118 268.955322,525.042542 
	C268.955322,525.042542 268.883881,525.065735 269.147766,525.660339 
	C270.051270,526.191772 270.954742,526.723206 271.880615,527.158203 
	C271.880615,527.158203 271.781555,527.157776 272.285187,527.787903 
	C273.841919,528.197510 275.398193,528.961060 276.955475,528.963257 
	C296.966522,528.991333 316.977692,528.910706 337.737549,529.005737 
	C338.495056,528.950806 339.252533,528.895874 340.924957,528.955688 
	C344.616394,528.871826 348.307831,528.788025 352.882019,528.869324 
	C354.148132,528.930298 355.414276,528.991333 356.977844,529.066650 
	C356.977844,531.408691 356.973633,533.389343 356.978516,535.369995 
	C357.044891,562.357300 357.112549,589.344543 357.364807,616.659973 
	C357.364807,616.659973 357.710999,616.511597 357.390717,617.341003 
	C357.889160,618.615723 358.387573,619.890381 358.894501,621.085022 
	C358.894501,621.085022 358.815918,621.102295 358.936310,621.750183 
	C359.612244,622.540955 360.288177,623.331726 361.115723,624.569031 
	C361.303131,624.854980 361.567596,625.006226 362.301147,625.655945 
	C365.113373,626.448242 367.913696,627.871277 370.739868,627.924683 
	C383.678009,628.168945 396.627411,628.201477 409.563019,627.895691 
	C412.454926,627.827209 415.307343,626.088501 418.056427,625.058044 
	C418.056427,625.058044 418.003540,625.183105 418.577911,624.988953 
	C418.796906,624.665649 419.015900,624.342346 419.015717,624.029053 
M630.833313,657.572083 
	C630.938843,657.710388 631.044312,657.848694 631.202637,658.528381 
	C631.617859,658.879822 632.033020,659.231262 632.493652,659.637024 
	C632.493652,659.637024 632.562195,659.619446 633.109619,660.095215 
	C635.605591,660.741577 638.106201,661.963684 640.596741,661.943359 
	C661.154480,661.776001 681.714722,661.518250 702.261475,660.878662 
	C704.921692,660.795776 707.509277,658.379150 710.565674,656.951355 
	C710.883240,656.841797 711.057434,656.619751 711.664856,655.917969 
	C711.864136,655.270874 712.063477,654.623718 712.090210,654.053162 
	C712.090210,654.053162 712.170532,654.223999 712.798584,653.611023 
	C712.868103,651.119141 712.998108,648.627319 712.998352,646.135437 
	C713.007385,540.085327 713.005981,434.035217 712.997375,327.985107 
	C712.997131,325.324463 712.901733,322.663788 712.995361,319.156281 
	C712.115967,313.654053 711.236633,308.151855 710.428345,302.681091 
	C710.428345,302.681091 710.455017,302.608093 710.180359,302.018768 
	C709.167847,301.268127 708.155396,300.517487 707.131897,299.845001 
	C707.131897,299.845001 707.210754,299.847839 706.724670,299.214996 
	C704.300049,298.822418 701.871277,298.067291 699.451538,298.095215 
	C681.864624,298.298340 664.278076,298.601990 646.695862,299.050415 
	C644.731689,299.100494 642.795715,300.255859 640.918884,300.908051 
	C640.918884,300.908051 640.912109,300.835510 640.314087,301.030060 
	C639.507263,301.666565 638.700439,302.303070 637.958801,302.965454 
	C637.958801,302.965454 637.951111,302.895721 637.354126,303.087555 
	C636.536865,303.716492 635.719604,304.345459 634.440125,305.042969 
	C634.130981,305.195740 633.963257,305.444000 633.336243,306.053528 
	C632.168091,306.998138 630.999939,307.942780 629.948181,308.939545 
	C629.948181,308.939545 629.997620,308.821899 629.405762,308.998688 
	C629.178467,309.313141 628.951172,309.627594 628.987610,309.897888 
	C628.987610,309.897888 628.940735,309.634735 628.295776,309.755096 
	C627.811584,310.155304 627.327393,310.555511 626.419312,311.026550 
	C626.116821,311.136261 625.946899,311.350922 625.313049,311.918579 
	C624.492371,312.584869 623.671631,313.251190 622.923340,313.923309 
	C622.923340,313.923309 622.922546,313.850647 622.329651,314.044312 
	C621.527832,314.683258 620.726013,315.322205 619.981262,315.990662 
	C619.981262,315.990662 619.984680,315.926544 619.438171,316.077026 
	C619.228088,316.380432 619.018066,316.683807 618.942017,316.942566 
	C618.942017,316.942566 618.894287,316.809601 618.298889,317.020447 
	C617.487183,317.668030 616.675415,318.315613 615.427246,319.024200 
	C615.118286,319.138855 614.944824,319.359863 614.323181,319.939453 
	C614.141235,320.276428 613.959229,320.613403 614.022522,320.747375 
	C614.022522,320.747375 613.819214,320.502350 613.201416,320.660278 
	C612.758179,321.085510 612.314941,321.510712 611.971680,321.977570 
	C611.971680,321.977570 612.012146,321.877106 611.440002,322.046326 
	C611.180603,322.336426 610.921143,322.626526 610.002075,323.013214 
	C585.468628,340.951324 560.928162,358.879852 536.406616,376.834167 
	C530.044373,381.492493 529.291809,384.078827 532.510315,391.166229 
	C538.736511,404.876862 545.066895,418.540314 551.385559,432.208771 
	C555.626160,441.382111 559.601990,442.314728 567.911743,436.279541 
	C584.038452,424.567078 600.187073,412.884735 616.343933,401.213928 
	C621.773010,397.292297 624.994873,398.069885 628.500854,404.942200 
	C628.584839,406.266541 628.742126,407.590851 628.742249,408.915192 
	C628.750549,480.294342 628.731262,551.673462 628.758362,623.052612 
	C628.762146,633.026917 628.986938,643.001099 628.981812,653.546509 
	C629.188416,654.055786 629.394958,654.565063 629.805725,655.699951 
	C630.154968,656.225647 630.504211,656.751343 630.869690,657.081299 
	C630.869690,657.081299 630.673523,657.071289 630.833313,657.572083 
z"/>
<path fill="#03A9F4" opacity="1.000000" stroke="none" 
	d="
M827.766968,184.952789 
	C815.481140,182.688522 803.038635,180.047394 790.569153,177.540604 
	C788.307495,177.085922 785.935242,177.042984 783.614014,177.042725 
	C602.326721,177.022659 421.039429,177.018402 239.752136,177.069519 
	C235.129227,177.070816 230.506470,177.699799 225.438049,178.010742 
	C226.483398,177.341492 227.937378,176.259659 229.471741,176.130142 
	C235.758972,175.599503 242.070602,175.057846 248.373428,175.055847 
	C423.955902,174.999908 599.538391,174.965958 775.120850,175.079315 
	C791.641846,175.089981 807.904663,177.802231 823.781067,182.496155 
	C825.144714,182.899323 826.331909,183.899261 827.766968,184.952789 
z"/>
<path fill="#03A9F4" opacity="1.000000" stroke="none" 
	d="
M916.082520,697.840088 
	C921.874878,683.768616 926.705078,669.226990 928.490479,653.833923 
	C929.198364,647.731262 929.914917,641.581482 929.920044,635.452515 
	C930.007874,531.145142 930.199768,426.836670 929.716614,322.531464 
	C929.655334,309.291656 925.932556,296.068817 923.862915,282.437073 
	C924.518738,282.911896 925.661133,283.702759 925.848022,284.676910 
	C927.660522,294.123230 930.732910,303.591278 930.792969,313.069946 
	C931.464355,418.924530 931.803772,524.781921 931.876343,630.638855 
	C931.891479,652.736877 927.883606,674.305725 918.670349,694.640991 
	C918.151978,695.785156 917.185730,696.726379 916.082520,697.840088 
z"/>
<path fill="#03A9F4" opacity="1.000000" stroke="none" 
	d="
M102.996063,275.245819 
	C95.565094,297.057861 94.838013,319.814178 94.901215,342.845398 
	C95.169083,440.463287 95.026329,538.082336 95.005669,635.700989 
	C95.002449,650.914978 97.488945,665.717651 101.957535,680.611755 
	C101.304214,680.310547 100.237831,679.701477 100.080650,678.911560 
	C97.975937,668.334595 94.322372,657.744141 94.247864,647.134583 
	C93.494453,539.857544 93.239548,432.576508 93.101509,325.296234 
	C93.080711,309.133026 95.463593,293.149445 101.063652,277.824005 
	C101.385994,276.941895 102.119072,276.209900 102.996063,275.245819 
z"/>
<path fill="#03A9F4" opacity="1.000000" stroke="none" 
	d="
M470.388397,783.376892 
	C473.351990,783.121277 476.677521,783.004395 480.003052,783.004028 
	C578.879089,782.993286 677.755188,783.015320 776.631165,782.947266 
	C783.436157,782.942566 790.240784,782.279907 797.682739,782.099182 
	C798.573242,782.480347 798.792419,782.717102 798.977539,782.985474 
	C790.843628,783.329102 782.709839,783.965881 774.575684,783.971741 
	C675.448120,784.043213 576.320557,784.024963 477.192932,784.005859 
	C475.045380,784.005432 472.897858,783.721558 470.388397,783.376892 
z"/>
<path fill="#03A9F4" opacity="1.000000" stroke="none" 
	d="
M190.357666,772.825806 
	C199.079300,774.976990 207.879684,777.942017 216.908371,779.794128 
	C225.959763,781.650940 235.238968,782.397278 244.484497,783.639221 
	C244.484497,797.219788 244.648163,811.146057 244.448624,825.067200 
	C244.090820,850.029785 243.421204,874.988159 243.130890,899.951233 
	C243.087601,903.673950 244.398331,907.412354 245.125412,911.553711 
	C243.894104,906.989990 241.654053,902.039551 241.532394,897.037598 
	C241.205475,883.597351 241.780746,870.135010 242.003754,856.681580 
	C242.339615,836.418884 242.672501,816.156189 243.026749,795.893799 
	C243.089645,792.295776 244.561966,787.824524 242.937042,785.388245 
	C241.710281,783.548950 236.525909,784.570923 233.196640,783.872742 
	C220.548752,781.220703 207.927383,778.437744 195.328613,775.561340 
	C193.636078,775.174927 192.129303,773.974976 190.357666,772.825806 
z"/>
<path fill="#03A9F4" opacity="1.000000" stroke="none" 
	d="
M263.111511,932.314331 
	C275.421173,937.695435 287.494110,937.271240 299.540924,929.892334 
	C296.027069,931.997070 292.395386,935.139648 288.240540,936.167480 
	C280.821564,938.002686 273.126770,937.837708 265.849579,934.733093 
	C264.855957,934.309265 264.087128,933.358521 263.111511,932.314331 
z"/>
<path fill="#03A9F4" opacity="1.000000" stroke="none" 
	d="
M799.383179,782.964600 
	C798.792419,782.717102 798.573242,782.480347 798.130371,782.122986 
	C808.606201,779.301331 819.273010,776.637817 829.933777,773.950134 
	C830.726501,773.750305 831.475586,773.376892 832.624512,773.078796 
	C831.563416,774.033203 830.245117,775.464966 828.661987,775.875305 
	C819.071167,778.360962 809.419922,780.613403 799.383179,782.964600 
z"/>
<path fill="#03A9F4" opacity="1.000000" stroke="none" 
	d="
M366.317596,867.958374 
	C369.051605,865.007263 372.148865,862.038452 375.548157,858.918579 
	C372.793762,861.825317 369.737305,864.883057 366.317596,867.958374 
z"/>
<path fill="#03A9F4" opacity="1.000000" stroke="none" 
	d="
M884.320068,740.970581 
	C886.237976,738.633423 888.520508,736.276428 891.037048,733.708984 
	C891.431946,738.065125 888.249451,739.676819 884.320068,740.970581 
z"/>
<path fill="#03A9F4" opacity="1.000000" stroke="none" 
	d="
M311.950134,919.666748 
	C313.804260,917.443237 316.026154,915.246704 318.556824,912.917358 
	C316.683075,915.087524 314.500458,917.390625 311.950134,919.666748 
z"/>
<path fill="#03A9F4" opacity="1.000000" stroke="none" 
	d="
M389.318756,845.981201 
	C391.044250,844.006409 393.144440,842.025513 395.551270,839.909973 
	C393.803070,841.841919 391.748260,843.908508 389.318756,845.981201 
z"/>
<path fill="#03A9F4" opacity="1.000000" stroke="none" 
	d="
M351.945374,881.654419 
	C353.488586,879.763550 355.401581,877.903503 357.616211,875.890991 
	C356.050293,877.720825 354.182739,879.703003 351.945374,881.654419 
z"/>
<path fill="#03A9F4" opacity="1.000000" stroke="none" 
	d="
M411.928406,824.628906 
	C413.460510,822.750366 415.361908,820.911560 417.564178,818.928467 
	C416.009277,820.745667 414.153503,822.707153 411.928406,824.628906 
z"/>
<path fill="#03A9F4" opacity="1.000000" stroke="none" 
	d="
M251.400879,922.916626 
	C253.159897,924.190918 254.870651,925.837952 256.769348,927.750488 
	C255.089081,926.440369 253.220840,924.864868 251.400879,922.916626 
z"/>
<path fill="#03A9F4" opacity="1.000000" stroke="none" 
	d="
M331.937103,900.643311 
	C333.130554,899.089478 334.694641,897.570984 336.558289,895.914307 
	C335.341156,897.410278 333.824463,899.044434 331.937103,900.643311 
z"/>
<path fill="#03A9F4" opacity="1.000000" stroke="none" 
	d="
M847.323914,766.965454 
	C849.368164,765.621826 851.800476,764.275513 854.583984,762.843262 
	C852.527527,764.159119 850.119751,765.560913 847.323914,766.965454 
z"/>
<path fill="#03A9F4" opacity="1.000000" stroke="none" 
	d="
M923.922363,281.743774 
	C922.959900,279.687531 922.015076,277.215912 921.074707,274.373352 
	C922.032715,276.444458 922.986267,278.886444 923.922363,281.743774 
z"/>
<path fill="#03A9F4" opacity="1.000000" stroke="none" 
	d="
M834.125366,772.932068 
	C835.873596,771.925842 838.030884,770.934692 840.549561,769.884766 
	C838.785461,770.866333 836.659973,771.906799 834.125366,772.932068 
z"/>
<path fill="#03A9F4" opacity="1.000000" stroke="none" 
	d="
M102.081947,682.016846 
	C103.036224,683.823425 103.978790,686.042969 104.922150,688.630188 
	C103.972038,686.808533 103.021141,684.619202 102.081947,682.016846 
z"/>
<path fill="#03A9F4" opacity="1.000000" stroke="none" 
	d="
M245.078018,912.242432 
	C246.047867,913.655823 247.003433,915.463135 248.030884,917.611389 
	C247.089737,916.180359 246.076736,914.408325 245.078018,912.242432 
z"/>
<path fill="#03A9F4" opacity="1.000000" stroke="none" 
	d="
M105.069031,690.101196 
	C106.008804,691.569153 106.935646,693.434082 107.893234,695.650757 
	C106.968018,694.167725 106.012054,692.333008 105.069031,690.101196 
z"/>
<path fill="#03A9F4" opacity="1.000000" stroke="none" 
	d="
M248.065033,918.274109 
	C249.103928,919.258240 250.149918,920.621826 251.350189,922.272095 
	C250.360367,921.257080 249.216248,919.955322 248.065033,918.274109 
z"/>
<path fill="#03A9F4" opacity="1.000000" stroke="none" 
	d="
M907.193848,713.850830 
	C907.672607,712.347961 908.517822,710.792786 909.644897,709.058289 
	C909.137878,710.518799 908.349121,712.158691 907.193848,713.850830 
z"/>
<path fill="#03A9F4" opacity="1.000000" stroke="none" 
	d="
M300.194885,929.892578 
	C300.989594,928.932434 302.160004,927.983154 303.631226,926.903564 
	C302.811554,927.816772 301.691071,928.860107 300.194885,929.892578 
z"/>
<path fill="#03A9F4" opacity="1.000000" stroke="none" 
	d="
M407.338074,828.967773 
	C407.969208,827.945496 408.972961,826.898132 410.229614,825.670471 
	C409.558563,826.641052 408.634644,827.791870 407.338074,828.967773 
z"/>
<path fill="#03A9F4" opacity="1.000000" stroke="none" 
	d="
M222.934937,178.081482 
	C222.028641,178.558746 220.877686,178.793335 219.359665,178.991318 
	C220.225159,178.582733 221.457718,178.210770 222.934937,178.081482 
z"/>
<path fill="#03A9F4" opacity="1.000000" stroke="none" 
	d="
M216.838043,178.952332 
	C215.643616,179.463013 214.209030,179.779984 212.379684,180.133911 
	C213.522583,179.700119 215.060211,179.229370 216.838043,178.952332 
z"/>
<path fill="#03A9F4" opacity="1.000000" stroke="none" 
	d="
M104.862892,270.218445 
	C104.703033,271.618744 104.219276,273.203583 103.462616,275.018677 
	C103.639481,273.633606 104.089233,272.018280 104.862892,270.218445 
z"/>
<path fill="#03A9F4" opacity="1.000000" stroke="none" 
	d="
M841.209961,769.913635 
	C841.993530,769.267639 843.150818,768.641541 844.647522,767.994324 
	C843.852539,768.626709 842.718079,769.280090 841.209961,769.913635 
z"/>
<path fill="#03A9F4" opacity="1.000000" stroke="none" 
	d="
M179.216949,768.116089 
	C180.320496,768.264160 181.595322,768.733704 183.089691,769.467285 
	C182.002228,769.300049 180.695236,768.868774 179.216949,768.116089 
z"/>
<path fill="#03A9F4" opacity="1.000000" stroke="none" 
	d="
M113.860245,251.205673 
	C113.694588,252.301758 113.217041,253.576218 112.454788,255.043304 
	C112.629501,253.951965 113.088928,252.667999 113.860245,251.205673 
z"/>
<path fill="#03A9F4" opacity="1.000000" stroke="none" 
	d="
M106.625183,266.125641 
	C106.519821,267.253113 106.086517,268.512848 105.374222,269.963959 
	C105.495903,268.856201 105.896576,267.557037 106.625183,266.125641 
z"/>
<path fill="#03A9F4" opacity="1.000000" stroke="none" 
	d="
M910.999146,707.701050 
	C911.195007,706.534058 911.766113,705.303101 912.620728,703.880127 
	C912.394226,705.004395 911.884338,706.320679 910.999146,707.701050 
z"/>
<path fill="#03A9F4" opacity="1.000000" stroke="none" 
	d="
M259.176331,930.075684 
	C260.255463,930.316833 261.422241,930.907776 262.809631,931.742554 
	C261.774811,931.466125 260.519379,930.945801 259.176331,930.075684 
z"/>
<path fill="#03A9F4" opacity="1.000000" stroke="none" 
	d="
M900.038208,723.830811 
	C900.259827,723.010620 900.826477,722.116211 901.666016,721.056519 
	C901.420349,721.846313 900.901733,722.801453 900.038208,723.830811 
z"/>
<path fill="#03A9F4" opacity="1.000000" stroke="none" 
	d="
M903.097900,719.789795 
	C903.288208,718.956787 903.822510,718.058899 904.635132,717.009460 
	C904.422974,717.813538 903.932373,718.769165 903.097900,719.789795 
z"/>
<path fill="#03A9F4" opacity="1.000000" stroke="none" 
	d="
M905.188416,716.839294 
	C905.347412,715.999268 905.842468,715.072449 906.615234,713.990051 
	C906.436829,714.807129 905.980652,715.779785 905.188416,716.839294 
z"/>
<path fill="#03A9F4" opacity="1.000000" stroke="none" 
	d="
M860.133057,759.854248 
	C860.610474,759.218384 861.447815,758.602722 862.592957,757.901306 
	C862.098206,758.501831 861.295593,759.188110 860.133057,759.854248 
z"/>
<path fill="#03A9F4" opacity="1.000000" stroke="none" 
	d="
M896.034180,728.834473 
	C896.266418,728.025024 896.842224,727.141663 897.689697,726.091919 
	C897.433472,726.870544 896.905640,727.815552 896.034180,728.834473 
z"/>
<path fill="#03A9F4" opacity="1.000000" stroke="none" 
	d="
M855.160156,762.876587 
	C855.647949,762.257507 856.489380,761.648804 857.642090,760.969849 
	C857.140259,761.562073 856.327087,762.224548 855.160156,762.876587 
z"/>
<path fill="#03A9F4" opacity="1.000000" stroke="none" 
	d="
M876.928101,747.645508 
	C877.172241,747.095215 877.765076,746.536743 878.634460,745.845398 
	C878.366211,746.354126 877.821472,746.995728 876.928101,747.645508 
z"/>
<path fill="#03A9F4" opacity="1.000000" stroke="none" 
	d="
M183.265808,769.920654 
	C183.911453,769.921936 184.800293,770.180786 185.917023,770.699463 
	C185.266266,770.698975 184.387634,770.438599 183.265808,769.920654 
z"/>
<path fill="#03A9F4" opacity="1.000000" stroke="none" 
	d="
M863.116211,757.856934 
	C863.361145,757.388245 863.901733,756.880981 864.717407,756.301025 
	C864.465698,756.758362 863.938782,757.288391 863.116211,757.856934 
z"/>
<path fill="#03A9F4" opacity="1.000000" stroke="none" 
	d="
M211.789154,180.070496 
	C211.319031,180.401047 210.506744,180.724457 209.339539,181.037476 
	C209.805389,180.705826 210.626190,180.384583 211.789154,180.070496 
z"/>
<path fill="#03A9F4" opacity="1.000000" stroke="none" 
	d="
M175.165131,766.085571 
	C175.764420,766.050659 176.308792,766.225708 177.002319,766.651672 
	C176.471039,766.700195 175.790619,766.497864 175.165131,766.085571 
z"/>
<path fill="#03A9F4" opacity="1.000000" stroke="none" 
	d="
M830.748413,186.047241 
	C830.076050,186.103790 829.147034,185.907990 827.997986,185.434296 
	C828.682495,185.369217 829.587158,185.582062 830.748413,186.047241 
z"/>
<path fill="#03A9F4" opacity="1.000000" stroke="none" 
	d="
M347.228333,885.892639 
	C347.346069,885.545166 347.761383,885.107300 348.477173,884.574951 
	C348.360382,884.921082 347.943115,885.361633 347.228333,885.892639 
z"/>
<path fill="#03A9F4" opacity="1.000000" stroke="none" 
	d="
M858.192993,760.880249 
	C858.383362,760.594788 858.877502,760.240417 859.682434,759.814575 
	C859.494385,760.099182 858.995544,760.455261 858.192993,760.880249 
z"/>
<path fill="#03A9F4" opacity="1.000000" stroke="none" 
	d="
M177.220947,767.047180 
	C177.610367,767.002380 178.220688,767.180664 179.002625,767.629639 
	C178.596786,767.690308 178.019333,767.480286 177.220947,767.047180 
z"/>
<path fill="#03A9F4" opacity="1.000000" stroke="none" 
	d="
M867.238403,754.895447 
	C867.425110,754.616577 867.906921,754.257935 868.692810,753.826355 
	C868.509033,754.107483 868.021240,754.461548 867.238403,754.895447 
z"/>
<path fill="#03A9F4" opacity="1.000000" stroke="none" 
	d="
M329.254944,902.900024 
	C329.365204,902.553223 329.767761,902.113647 330.467957,901.582825 
	C330.359467,901.930115 329.953369,902.368652 329.254944,902.900024 
z"/>
<path fill="#03A9F4" opacity="1.000000" stroke="none" 
	d="
M871.272583,751.912598 
	C871.459106,751.644775 871.933350,751.290039 872.705261,750.861084 
	C872.522034,751.133240 872.041138,751.479492 871.272583,751.912598 
z"/>
<path fill="#03A9F4" opacity="1.000000" stroke="none" 
	d="
M875.210327,748.879150 
	C875.353027,748.539490 875.799988,748.121948 876.557007,747.627441 
	C876.416260,747.967346 875.965393,748.384277 875.210327,748.879150 
z"/>
<path fill="#03A9F4" opacity="1.000000" stroke="none" 
	d="
M307.211792,923.891602 
	C307.310669,923.538086 307.707611,923.097717 308.394531,922.544556 
	C308.292969,922.889465 307.901398,923.347168 307.211792,923.891602 
z"/>
<path fill="#03A9F4" opacity="1.000000" stroke="none" 
	d="
M845.246460,767.909363 
	C845.445618,767.663818 845.926208,767.344421 846.697998,766.983643 
	C846.502075,767.240051 846.015015,767.537720 845.246460,767.909363 
z"/>
<path fill="#03A9F4" opacity="1.000000" stroke="none" 
	d="
M112.035034,255.223923 
	C112.070786,255.619492 111.876076,256.242310 111.404938,257.040161 
	C111.353859,256.627167 111.579216,256.039185 112.035034,255.223923 
z"/>
<path fill="#03A9F4" opacity="1.000000" stroke="none" 
	d="
M108.146179,696.990112 
	C108.441277,697.215515 108.783089,697.774658 109.177887,698.677246 
	C108.884880,698.455078 108.538895,697.889465 108.146179,696.990112 
z"/>
<path fill="#03A9F4" opacity="1.000000" stroke="none" 
	d="
M832.753479,186.848587 
	C832.360901,186.942047 831.733276,186.828537 830.910889,186.456268 
	C831.316895,186.345566 831.917664,186.493591 832.753479,186.848587 
z"/>
<path fill="#03A9F4" opacity="1.000000" stroke="none" 
	d="
M111.136055,703.048828 
	C111.454140,703.252380 111.827026,703.783813 112.248672,704.655212 
	C111.928581,704.455688 111.559715,703.916199 111.136055,703.048828 
z"/>
<path fill="#03A9F4" opacity="1.000000" stroke="none" 
	d="
M112.230965,705.037415 
	C112.584305,705.206482 112.969978,705.706726 113.423424,706.532104 
	C113.081894,706.361084 112.672600,705.864807 112.230965,705.037415 
z"/>
<path fill="#03A9F4" opacity="1.000000" stroke="none" 
	d="
M125.062637,235.224976 
	C125.026047,235.568405 124.761215,236.118149 124.253967,236.857605 
	C124.285828,236.508652 124.560112,235.969986 125.062637,235.224976 
z"/>
<path fill="#03A9F4" opacity="1.000000" stroke="none" 
	d="
M110.998337,257.220032 
	C111.014870,257.605164 110.807632,258.229004 110.337082,259.051270 
	C110.307373,258.652679 110.540970,258.055725 110.998337,257.220032 
z"/>
<path fill="#03A9F4" opacity="1.000000" stroke="none" 
	d="
M834.769165,187.728928 
	C834.432922,187.766571 833.878174,187.623657 833.130981,187.255753 
	C833.475891,187.203293 834.013306,187.375839 834.769165,187.728928 
z"/>
<path fill="#03A9F4" opacity="1.000000" stroke="none" 
	d="
M891.742065,733.497925 
	C891.779114,733.119568 892.103699,732.619568 892.692749,731.984863 
	C892.648071,732.358887 892.338867,732.867554 891.742065,733.497925 
z"/>
<path fill="#03A9F4" opacity="1.000000" stroke="none" 
	d="
M344.036896,888.793579 
	C344.043610,888.661194 344.263855,888.369202 344.746521,887.980347 
	C344.756104,888.133606 344.503296,888.383850 344.036896,888.793579 
z"/>
<path fill="#03A9F4" opacity="1.000000" stroke="none" 
	d="
M338.010864,894.810059 
	C337.999420,894.656433 338.208679,894.325439 338.702820,893.892578 
	C338.735626,894.071350 338.483612,894.351929 338.010864,894.810059 
z"/>
<path fill="#03A9F4" opacity="1.000000" stroke="none" 
	d="
M345.077026,887.832397 
	C345.072357,887.699097 345.268127,887.396667 345.717010,886.987061 
	C345.739227,887.141052 345.508362,887.402100 345.077026,887.832397 
z"/>
<path fill="#03A9F4" opacity="1.000000" stroke="none" 
	d="
M339.022034,893.814941 
	C339.008942,893.673462 339.204346,893.342285 339.662781,892.876770 
	C339.694092,893.036682 339.462311,893.330994 339.022034,893.814941 
z"/>
<path fill="#03A9F4" opacity="1.000000" stroke="none" 
	d="
M324.055817,907.830566 
	C324.048370,907.693420 324.246063,907.383057 324.702026,906.960083 
	C324.727173,907.117493 324.494049,907.387451 324.055817,907.830566 
z"/>
<path fill="#03A9F4" opacity="1.000000" stroke="none" 
	d="
M348.800842,884.649475 
	C348.755402,884.454285 348.961884,884.091248 349.481445,883.630005 
	C349.547272,883.848389 349.300018,884.164978 348.800842,884.649475 
z"/>
<path fill="#03A9F4" opacity="1.000000" stroke="none" 
	d="
M349.813904,883.653809 
	C349.772369,883.461609 349.983063,883.100281 350.507080,882.638672 
	C350.568970,882.853821 350.317535,883.169312 349.813904,883.653809 
z"/>
<path fill="#03A9F4" opacity="1.000000" stroke="none" 
	d="
M350.828522,882.676636 
	C350.796600,882.486389 351.017883,882.128784 351.558044,881.684448 
	C351.611847,881.901550 351.346771,882.205444 350.828522,882.676636 
z"/>
<path fill="#03A9F4" opacity="1.000000" stroke="none" 
	d="
M360.995178,872.776245 
	C360.988922,872.632874 361.204773,872.326721 361.681335,871.904480 
	C361.700470,872.063416 361.458893,872.338440 360.995178,872.776245 
z"/>
<path fill="#03A9F4" opacity="1.000000" stroke="none" 
	d="
M363.033447,870.797241 
	C363.034210,870.663025 363.246918,870.372925 363.714813,869.982117 
	C363.728485,870.134705 363.486938,870.388000 363.033447,870.797241 
z"/>
<path fill="#03A9F4" opacity="1.000000" stroke="none" 
	d="
M365.099182,868.821899 
	C365.098297,868.691162 365.294250,868.406677 365.740204,868.036316 
	C365.782684,868.212769 365.551331,868.451965 365.099182,868.821899 
z"/>
<path fill="#03A9F4" opacity="1.000000" stroke="none" 
	d="
M337.005280,895.807861 
	C336.994202,895.654297 337.204651,895.323364 337.701294,894.890869 
	C337.733917,895.069580 337.480377,895.350037 337.005280,895.807861 
z"/>
<path fill="#03A9F4" opacity="1.000000" stroke="none" 
	d="
M330.837708,901.657471 
	C330.800659,901.468018 331.013245,901.110535 331.541748,900.660522 
	C331.600922,900.875183 331.344116,901.182312 330.837708,901.657471 
z"/>
<path fill="#03A9F4" opacity="1.000000" stroke="none" 
	d="
M125.979973,234.228241 
	C125.999680,234.395920 125.803177,234.738998 125.313812,235.156464 
	C125.268555,234.955109 125.516159,234.679382 125.979973,234.228241 
z"/>
<path fill="#03A9F4" opacity="1.000000" stroke="none" 
	d="
M395.999451,839.804932 
	C395.986938,839.649231 396.197357,839.315002 396.695221,838.878296 
	C396.729248,839.059326 396.475800,839.342896 395.999451,839.804932 
z"/>
<path fill="#03A9F4" opacity="1.000000" stroke="none" 
	d="
M323.054810,908.826660 
	C323.048767,908.683960 323.253265,908.367859 323.729187,907.949951 
	C323.755524,908.116577 323.510437,908.384888 323.054810,908.826660 
z"/>
<path fill="#03A9F4" opacity="1.000000" stroke="none" 
	d="
M322.001251,909.781494 
	C322.004486,909.638733 322.233398,909.338928 322.736267,908.945862 
	C322.749084,909.109924 322.487976,909.367188 322.001251,909.781494 
z"/>
<path fill="#03A9F4" opacity="1.000000" stroke="none" 
	d="
M115.767624,249.176666 
	C115.804688,249.320404 115.664345,249.639008 115.268585,250.062027 
	C115.191261,249.884720 115.383614,249.613083 115.767624,249.176666 
z"/>
<path fill="#03A9F4" opacity="1.000000" stroke="none" 
	d="
M319.029449,912.811035 
	C319.012756,912.667664 319.201843,912.326843 319.656342,911.846069 
	C319.692932,912.008606 319.464081,912.311157 319.029449,912.811035 
z"/>
<path fill="#03A9F4" opacity="1.000000" stroke="none" 
	d="
M310.848877,920.665955 
	C310.814972,920.478577 311.029175,920.122864 311.560547,919.678223 
	C311.617493,919.892029 311.357269,920.194824 310.848877,920.665955 
z"/>
<path fill="#03A9F4" opacity="1.000000" stroke="none" 
	d="
M309.789490,921.610413 
	C309.746857,921.412964 309.959351,921.060974 310.483948,920.623108 
	C310.545593,920.843445 310.295105,921.149597 309.789490,921.610413 
z"/>
<path fill="#03A9F4" opacity="1.000000" stroke="none" 
	d="
M308.770874,922.594116 
	C308.719879,922.398499 308.922119,922.048462 309.425171,921.595825 
	C309.492065,921.808655 309.258087,922.124146 308.770874,922.594116 
z"/>
<path fill="#03A9F4" opacity="1.000000" stroke="none" 
	d="
M120.079376,242.238205 
	C120.066742,242.369781 119.821220,242.657990 119.310806,243.062042 
	C119.312767,242.916855 119.579628,242.655853 120.079376,242.238205 
z"/>
<path fill="#03A9F4" opacity="1.000000" stroke="none" 
	d="
M118.702873,244.203491 
	C118.756180,244.340256 118.648918,244.663727 118.305817,245.120941 
	C118.212402,244.958328 118.369843,244.670166 118.702873,244.203491 
z"/>
<path fill="#03A9F4" opacity="1.000000" stroke="none" 
	d="
M116.707703,247.242401 
	C116.777367,247.394684 116.675354,247.772903 116.322845,248.330444 
	C116.226906,248.162613 116.381462,247.815475 116.707703,247.242401 
z"/>
<path fill="#03A9F4" opacity="1.000000" stroke="none" 
	d="
M865.959106,755.788635 
	C865.967407,755.644165 866.205688,755.363403 866.716919,755.015747 
	C866.722961,755.183411 866.456055,755.417847 865.959106,755.788635 
z"/>
<path fill="#03A9F4" opacity="1.000000" stroke="none" 
	d="
M108.728859,262.205841 
	C108.777908,262.343872 108.662689,262.669830 108.309540,263.128845 
	C108.220253,262.963654 108.384583,262.674255 108.728859,262.205841 
z"/>
<path fill="#03A9F4" opacity="1.000000" stroke="none" 
	d="
M114.947845,250.172485 
	C114.953957,250.315338 114.748459,250.630173 114.269020,251.044342 
	C114.242134,250.877289 114.489182,250.610886 114.947845,250.172485 
z"/>
<path fill="#03A9F4" opacity="1.000000" stroke="none" 
	d="
M109.172241,698.980225 
	C109.333633,698.983826 109.615402,699.209229 109.902023,699.713989 
	C109.702126,699.729553 109.497368,699.465820 109.172241,698.980225 
z"/>
<path fill="#03A9F4" opacity="1.000000" stroke="none" 
	d="
M914.293396,700.800171 
	C914.251404,700.670898 914.367310,700.360535 914.712708,699.921631 
	C914.790222,700.075317 914.626587,700.350647 914.293396,700.800171 
z"/>
<path fill="#03A9F4" opacity="1.000000" stroke="none" 
	d="
M113.246582,707.043457 
	C113.379372,707.059631 113.701599,707.315857 114.120903,707.918945 
	C113.957321,707.938354 113.696671,707.610901 113.246582,707.043457 
z"/>
<path fill="#03A9F4" opacity="1.000000" stroke="none" 
	d="
M910.074219,708.804810 
	C910.027344,708.632080 910.185120,708.266907 910.627563,707.793640 
	C910.701050,707.994446 910.489868,708.303406 910.074219,708.804810 
z"/>
<path fill="#03A9F4" opacity="1.000000" stroke="none" 
	d="
M187.214569,771.291565 
	C187.349930,771.239868 187.682739,771.347534 188.164291,771.686279 
	C188.012695,771.761841 187.712341,771.606384 187.214569,771.291565 
z"/>
<path fill="#03A9F4" opacity="1.000000" stroke="none" 
	d="
M868.996704,753.815552 
	C868.989868,753.672302 869.201416,753.360291 869.684021,752.941406 
	C869.708374,753.105347 869.461731,753.376099 868.996704,753.815552 
z"/>
<path fill="#03A9F4" opacity="1.000000" stroke="none" 
	d="
M902.093628,720.813965 
	C902.064636,720.655396 902.241394,720.316345 902.693115,719.872253 
	C902.745178,720.055969 902.522278,720.344788 902.093628,720.813965 
z"/>
<path fill="#03A9F4" opacity="1.000000" stroke="none" 
	d="
M873.018555,750.815186 
	C873.009399,750.665710 873.220093,750.343689 873.710815,749.919617 
	C873.740051,750.092590 873.489258,750.367676 873.018555,750.815186 
z"/>
<path fill="#03A9F4" opacity="1.000000" stroke="none" 
	d="
M874.033081,749.828003 
	C874.028198,749.682373 874.238403,749.377808 874.720642,748.989502 
	C874.744507,749.160156 874.496277,749.414551 874.033081,749.828003 
z"/>
<path fill="#03A9F4" opacity="1.000000" stroke="none" 
	d="
M898.116577,725.810791 
	C898.099548,725.675903 898.276917,725.362000 898.697754,724.917236 
	C898.731201,725.068237 898.521057,725.350037 898.116577,725.810791 
z"/>
<path fill="#03A9F4" opacity="1.000000" stroke="none" 
	d="
M880.024902,744.789917 
	C880.026245,744.649414 880.247192,744.352417 880.736023,743.961060 
	C880.750732,744.122253 880.497620,744.377808 880.024902,744.789917 
z"/>
<path fill="#03A9F4" opacity="1.000000" stroke="none" 
	d="
M881.067566,743.833191 
	C881.065308,743.702759 881.263062,743.397461 881.712524,742.976318 
	C881.732056,743.126465 881.499817,743.392395 881.067566,743.833191 
z"/>
<path fill="#03A9F4" opacity="1.000000" stroke="none" 
	d="
M375.997437,858.807861 
	C375.990173,858.655579 376.206268,858.331299 376.710144,857.914307 
	C376.738861,858.093018 376.479828,858.364380 375.997437,858.807861 
z"/>
<path fill="#03A9F4" opacity="1.000000" stroke="none" 
	d="
M189.211670,772.227539 
	C189.371826,772.123047 189.739395,772.173889 190.254181,772.472961 
	C190.073944,772.608459 189.746506,772.495667 189.211670,772.227539 
z"/>
<path fill="#03A9F4" opacity="1.000000" stroke="none" 
	d="
M107.733215,264.230225 
	C107.797188,264.379883 107.689240,264.745422 107.335396,265.278442 
	C107.246765,265.112640 107.404030,264.779358 107.733215,264.230225 
z"/>
<path fill="#03A9F4" opacity="1.000000" stroke="none" 
	d="
M421.055450,815.829102 
	C421.045654,815.690308 421.239441,815.373413 421.692810,814.940735 
	C421.721283,815.100342 421.490143,815.375732 421.055450,815.829102 
z"/>
<path fill="#03A9F4" opacity="1.000000" stroke="none" 
	d="
M420.029480,816.819824 
	C420.021759,816.671692 420.231873,816.353394 420.719818,815.937317 
	C420.747528,816.109558 420.497437,816.379578 420.029480,816.819824 
z"/>
<path fill="#03A9F4" opacity="1.000000" stroke="none" 
	d="
M419.016174,817.813477 
	C419.007446,817.663208 419.219055,817.339172 419.711914,816.913940 
	C419.740936,817.088379 419.488739,817.364014 419.016174,817.813477 
z"/>
<path fill="#03A9F4" opacity="1.000000" stroke="none" 
	d="
M418.009216,818.810181 
	C417.998718,818.657776 418.209473,818.329163 418.704315,817.897888 
	C418.735748,818.074707 418.483124,818.354309 418.009216,818.810181 
z"/>
<path fill="#03A9F4" opacity="1.000000" stroke="none" 
	d="
M410.821045,825.656982 
	C410.785217,825.464783 411.002686,825.107788 411.537384,824.662415 
	C411.594513,824.880066 411.334412,825.186096 410.821045,825.656982 
z"/>
<path fill="#03A9F4" opacity="1.000000" stroke="none" 
	d="
M401.993347,833.780823 
	C401.995758,833.645691 402.218658,833.351746 402.698364,832.943970 
	C402.708069,833.094116 402.460999,833.358032 401.993347,833.780823 
z"/>
<path fill="#03A9F4" opacity="1.000000" stroke="none" 
	d="
M398.983093,836.768005 
	C398.981537,836.630066 399.201874,836.325928 399.678436,835.896301 
	C399.691406,836.047791 399.448181,836.324768 398.983093,836.768005 
z"/>
<path fill="#03A9F4" opacity="1.000000" stroke="none" 
	d="
M397.013824,838.810242 
	C396.999084,838.667236 397.193329,838.329834 397.652405,837.853394 
	C397.685760,838.014832 397.454285,838.315369 397.013824,838.810242 
z"/>
<path fill="#03A9F4" opacity="1.000000" stroke="none" 
	d="
M384.052673,850.796265 
	C384.055847,850.670105 384.264679,850.380493 384.718018,849.973267 
	C384.727814,850.114685 384.493073,850.373779 384.052673,850.796265 
z"/>
<path fill="#03A9F4" opacity="1.000000" stroke="none" 
	d="
M381.018738,853.784790 
	C381.018982,853.651306 381.234436,853.356689 381.701660,852.945251 
	C381.713593,853.093506 381.473755,853.358643 381.018738,853.784790 
z"/>
<path fill="#03A9F4" opacity="1.000000" stroke="none" 
	d="
M377.044647,857.819153 
	C377.030457,857.678833 377.219696,857.349548 377.669891,856.888550 
	C377.703278,857.047974 377.475677,857.339050 377.044647,857.819153 
z"/>
<path fill="#03A9F4" opacity="1.000000" stroke="none" 
	d="
M711.088257,656.285156 
	C711.057434,656.619751 710.883240,656.841797 709.971313,657.053528 
	C706.215332,658.088074 703.075684,659.737427 699.888550,659.834900 
	C681.014648,660.412476 662.130432,660.708496 643.247681,660.899170 
	C639.690552,660.935181 636.124268,660.069153 632.562195,659.619446 
	C632.562195,659.619446 632.493652,659.637024 632.475830,659.322144 
	C632.295654,658.670898 632.133301,658.334473 631.786255,657.805298 
	C631.292175,657.432190 630.982849,657.251770 630.673523,657.071289 
	C630.673523,657.071289 630.869690,657.081299 630.820068,656.847595 
	C630.380798,656.100708 629.991150,655.587524 629.601562,655.074341 
	C629.394958,654.565063 629.188416,654.055786 629.258850,652.909668 
	C629.688416,650.959778 629.974182,649.646912 629.974548,648.333862 
	C629.998230,568.711182 630.009277,489.088470 629.932190,409.465820 
	C629.930420,407.644928 628.905823,405.825043 628.358276,404.004700 
	C624.994873,398.069885 621.773010,397.292297 616.343933,401.213928 
	C600.187073,412.884735 584.038452,424.567078 567.911743,436.279541 
	C559.601990,442.314728 555.626160,441.382111 551.385559,432.208771 
	C545.066895,418.540314 538.736511,404.876862 532.510315,391.166229 
	C529.291809,384.078827 530.044373,381.492493 536.406616,376.834167 
	C560.928162,358.879852 585.468628,340.951324 610.577637,322.820129 
	C611.439514,322.377075 611.725830,322.127106 612.012146,321.877136 
	C612.012146,321.877106 611.971680,321.977570 612.231689,321.887482 
	C612.934265,321.365692 613.376709,320.934021 613.819214,320.502350 
	C613.819214,320.502350 614.022522,320.747375 614.104980,320.655487 
	C614.427246,320.271484 614.667114,319.979340 614.906921,319.687225 
	C614.944824,319.359863 615.118286,319.138855 615.998413,318.972839 
	C617.344421,318.217529 618.119385,317.513550 618.894287,316.809601 
	C618.894287,316.809601 618.942017,316.942566 619.091553,316.810120 
	C619.489014,316.427307 619.736816,316.176910 619.984680,315.926544 
	C619.984680,315.926544 619.981262,315.990662 620.299500,315.953003 
	C621.385986,315.227142 622.154297,314.538910 622.922546,313.850647 
	C622.922546,313.850647 622.923340,313.923309 623.227173,313.880707 
	C624.323853,313.115601 625.116699,312.393066 625.909485,311.670532 
	C625.946899,311.350922 626.116821,311.136261 626.944824,310.923889 
	C627.960510,310.425720 628.450623,310.030243 628.940735,309.634735 
	C628.940735,309.634735 628.987610,309.897888 629.087524,309.756714 
	C629.457520,309.351013 629.727600,309.086456 629.997620,308.821899 
	C629.997620,308.821899 629.948181,308.939545 630.264526,308.923706 
	C631.699585,307.867859 632.818237,306.827850 633.936890,305.787811 
	C633.963257,305.444000 634.130981,305.195740 635.017334,304.982056 
	C636.380005,304.246002 637.165588,303.570862 637.951111,302.895721 
	C637.951111,302.895721 637.958801,302.965454 638.276245,302.939789 
	C639.366455,302.221252 640.139282,301.528381 640.912109,300.835510 
	C640.912109,300.835510 640.918884,300.908051 641.319824,300.925720 
	C647.488525,300.635681 653.254089,300.121338 659.024475,300.059814 
	C675.085510,299.888550 691.148499,299.905334 707.210754,299.847839 
	C707.210754,299.847839 707.131897,299.845001 707.171387,300.168579 
	C708.292236,301.197449 709.373596,301.902771 710.455017,302.608093 
	C710.455017,302.608093 710.428345,302.681091 710.323608,303.109589 
	C710.810120,309.023834 711.401428,314.509583 711.992065,320.464294 
	C711.988647,426.535553 711.982971,532.137878 711.990967,637.740234 
	C711.991394,643.234802 712.107971,648.729431 712.170532,654.223999 
	C712.170532,654.223999 712.090210,654.053162 711.950073,654.259644 
	C711.569397,655.072510 711.328796,655.678833 711.088257,656.285156 
z"/>
<path fill="#03A9F4" opacity="1.000000" stroke="none" 
	d="
M340.010040,528.840942 
	C339.252533,528.895874 338.495056,528.950806 337.190887,528.589478 
	C334.768280,527.782104 332.892883,527.054749 331.016327,527.051819 
	C311.271515,527.020691 291.526520,527.105164 271.781555,527.157776 
	C271.781555,527.157776 271.880615,527.158203 271.804871,526.862366 
	C270.780701,526.066223 269.832306,525.565979 268.883881,525.065735 
	C268.883881,525.065735 268.955322,525.042542 268.880646,524.772217 
	C268.433655,524.004395 268.061310,523.506897 267.688965,523.009338 
	C267.688965,523.009338 267.882935,523.123596 267.873047,522.765747 
	C267.580872,508.494873 267.105225,494.581635 267.120972,480.668945 
	C267.126495,475.779114 268.337250,470.890594 268.993744,465.732941 
	C268.979187,465.285645 268.968567,465.106934 268.957916,464.928223 
	C268.957916,464.928223 268.977631,464.998322 269.348694,464.965790 
	C276.643616,462.121399 283.711426,463.672028 290.833130,463.825592 
	C311.145935,464.263672 331.474426,464.040955 351.795532,463.899994 
	C353.524780,463.888031 355.244843,462.550232 356.969177,461.828369 
	C356.969177,461.828369 356.969025,461.940521 357.283264,461.800720 
	C358.063110,459.999756 358.907074,458.344025 358.931335,456.676392 
	C359.063934,447.550903 358.733826,438.413513 359.047791,429.296906 
	C359.810669,407.143768 356.950134,384.889069 360.888489,362.827301 
	C360.888489,362.827301 360.908417,362.908722 361.274902,362.907288 
	C364.376251,362.280151 367.113861,361.105865 369.845551,361.119476 
	C385.311737,361.196442 400.776520,361.557983 416.241760,361.822632 
	C416.241760,361.822632 416.141571,361.828033 416.206299,362.117432 
	C417.179199,362.939087 418.087402,363.471375 418.995605,364.003662 
	C418.995605,364.003632 419.000000,364.000000 419.009552,364.405487 
	C419.680603,369.019287 420.885590,373.223846 420.914612,377.436523 
	C421.091125,403.067871 420.985809,428.701080 421.006348,454.333649 
	C421.012909,462.548309 421.520935,462.935181 429.809479,463.021942 
	C457.244293,463.309082 484.678558,463.650604 512.113037,463.971313 
	C512.453796,463.949402 512.721680,464.078613 512.990723,464.994019 
	C513.703247,472.049408 514.900818,478.473053 514.863159,484.889496 
	C514.785828,498.087860 514.048035,511.282349 513.582031,524.478455 
	C513.582031,524.478455 513.396118,524.411316 513.191895,524.473999 
	C512.764893,524.847961 512.542053,525.159180 512.319275,525.470398 
	C512.319275,525.470398 512.501831,525.486694 512.086060,525.472656 
	C508.919281,525.968079 506.175201,526.876221 503.416016,526.924866 
	C478.496826,527.363831 453.574585,527.627502 428.654724,528.033875 
	C426.751770,528.064941 424.860138,528.794250 422.963257,529.198975 
	C422.963257,529.198975 423.027985,529.026978 422.736938,529.187744 
	C421.963562,531.005493 421.096161,532.655090 421.064514,534.320618 
	C420.915649,542.147949 421.069672,549.980591 420.981140,557.809692 
	C420.734650,579.606995 420.421478,601.403503 420.134644,623.200317 
	C420.134613,623.200317 420.062592,623.064514 419.915131,623.219482 
	C419.521545,623.665588 419.275421,623.956787 419.029297,624.247986 
	C419.029297,624.247986 419.015717,624.029053 418.900452,624.197021 
	C418.524628,624.637756 418.264069,624.910400 418.003540,625.183105 
	C418.003540,625.183105 418.056427,625.058044 417.700531,625.077393 
	C398.864471,626.304749 380.383209,628.323364 361.909058,625.022705 
	C361.567596,625.006226 361.303131,624.854980 361.026123,623.993286 
	C360.229675,622.645752 359.522797,621.874023 358.815918,621.102295 
	C358.815918,621.102295 358.894501,621.085022 358.918518,620.711304 
	C358.532043,619.062195 358.121521,617.786926 357.710999,616.511597 
	C357.710999,616.511597 357.364807,616.659973 357.622803,616.196350 
	C358.252686,613.991028 358.943817,612.250183 358.948517,610.507507 
	C359.017700,584.933777 359.016907,559.359802 358.979279,533.785950 
	C358.970245,527.634888 358.355621,527.125671 351.543457,527.000610 
	C347.394623,527.612854 343.702332,528.226929 340.010040,528.840942 
z"/>
<path fill="#03A9F4" opacity="1.000000" stroke="none" 
	d="
M712.484497,653.917480 
	C712.107971,648.729431 711.991394,643.234802 711.990967,637.740234 
	C711.982971,532.137878 711.988647,426.535553 712.206665,320.465485 
	C712.421814,319.997742 712.850769,320.003143 712.850769,320.003143 
	C712.901733,322.663788 712.997131,325.324463 712.997375,327.985107 
	C713.005981,434.035217 713.007385,540.085327 712.998352,646.135437 
	C712.998108,648.627319 712.868103,651.119141 712.484497,653.917480 
z"/>
<path fill="#03A9F4" opacity="1.000000" stroke="none" 
	d="
M511.862152,463.661255 
	C484.678558,463.650604 457.244293,463.309082 429.809479,463.021942 
	C421.520935,462.935181 421.012909,462.548309 421.006348,454.333649 
	C420.985809,428.701080 421.091125,403.067871 420.914612,377.436523 
	C420.885590,373.223846 419.680603,369.019287 419.007629,364.407715 
	C420.338287,367.775818 422.795441,371.533081 422.843414,375.320770 
	C423.179993,401.916443 423.019806,428.518402 423.018494,455.118347 
	C423.018402,456.919617 423.018463,458.720886 423.018463,460.819672 
	C424.285614,460.949158 425.223877,461.120972 426.163727,461.129974 
	C451.762939,461.376190 477.362915,461.560364 502.960785,461.901245 
	C505.850220,461.939728 508.728058,462.846832 511.862152,463.661255 
z"/>
<path fill="#03A9F4" opacity="1.000000" stroke="none" 
	d="
M628.429565,404.473450 
	C628.905823,405.825043 629.930420,407.644928 629.932190,409.465820 
	C630.009277,489.088470 629.998230,568.711182 629.974548,648.333862 
	C629.974182,649.646912 629.688416,650.959778 629.322632,652.624023 
	C628.986938,643.001099 628.762146,633.026917 628.758362,623.052612 
	C628.731262,551.673462 628.750549,480.294342 628.742249,408.915192 
	C628.742126,407.590851 628.584839,406.266541 628.429565,404.473450 
z"/>
<path fill="#03A9F4" opacity="1.000000" stroke="none" 
	d="
M360.573059,363.008026 
	C356.950134,384.889069 359.810669,407.143768 359.047791,429.296906 
	C358.733826,438.413513 359.063934,447.550903 358.931335,456.676392 
	C358.907074,458.344025 358.063110,459.999756 357.227356,461.796967 
	C356.910980,435.104553 356.940857,408.276062 357.044708,381.447815 
	C357.060181,377.456329 357.166779,373.429535 357.728088,369.489838 
	C358.038147,367.313507 359.380585,365.284302 360.573059,363.008026 
z"/>
<path fill="#03A9F4" opacity="1.000000" stroke="none" 
	d="
M420.448853,622.996826 
	C420.421478,601.403503 420.734650,579.606995 420.981140,557.809692 
	C421.069672,549.980591 420.915649,542.147949 421.064514,534.320618 
	C421.096161,532.655090 421.963562,531.005493 422.822205,529.222046 
	C423.113892,556.982117 423.101715,584.869263 422.849945,612.754272 
	C422.819672,616.106628 421.490295,619.447266 420.448853,622.996826 
z"/>
<path fill="#03A9F4" opacity="1.000000" stroke="none" 
	d="
M352.000000,527.002441 
	C358.355621,527.125671 358.970245,527.634888 358.979279,533.785950 
	C359.016907,559.359802 359.017700,584.933777 358.948517,610.507507 
	C358.943817,612.250183 358.252686,613.991028 357.530334,616.032288 
	C357.112549,589.344543 357.044891,562.357300 356.978516,535.369995 
	C356.973633,533.389343 356.977844,531.408691 356.977844,529.066650 
	C355.414276,528.991333 354.148132,528.930298 352.439148,528.503174 
	C351.997528,527.758789 351.998779,527.380615 352.000000,527.002441 
z"/>
<path fill="#03A9F4" opacity="1.000000" stroke="none" 
	d="
M356.505249,461.894196 
	C355.244843,462.550232 353.524780,463.888031 351.795532,463.899994 
	C331.474426,464.040955 311.145935,464.263672 290.833130,463.825592 
	C283.711426,463.672028 276.643616,462.121399 269.319366,464.944214 
	C271.571411,463.960358 274.216888,462.123138 276.877411,462.101074 
	C303.263977,461.882202 329.652985,461.963593 356.505249,461.894196 
z"/>
<path fill="#03A9F4" opacity="1.000000" stroke="none" 
	d="
M423.438416,529.162109 
	C424.860138,528.794250 426.751770,528.064941 428.654724,528.033875 
	C453.574585,527.627502 478.496826,527.363831 503.416016,526.924866 
	C506.175201,526.876221 508.919281,525.968079 512.081299,525.564148 
	C508.588867,526.659790 504.698273,528.447327 500.779938,528.510498 
	C475.161163,528.923584 449.536407,528.963379 423.438416,529.162109 
z"/>
<path fill="#03A9F4" opacity="1.000000" stroke="none" 
	d="
M632.835938,659.857300 
	C636.124268,660.069153 639.690552,660.935181 643.247681,660.899170 
	C662.130432,660.708496 681.014648,660.412476 699.888550,659.834900 
	C703.075684,659.737427 706.215332,658.088074 709.753662,657.099609 
	C707.509277,658.379150 704.921692,660.795776 702.261475,660.878662 
	C681.714722,661.518250 661.154480,661.776001 640.596741,661.943359 
	C638.106201,661.963684 635.605591,660.741577 632.835938,659.857300 
z"/>
<path fill="#03A9F4" opacity="1.000000" stroke="none" 
	d="
M272.033386,527.472839 
	C291.526520,527.105164 311.271515,527.020691 331.016327,527.051819 
	C332.892883,527.054749 334.768280,527.782104 336.816528,528.515381 
	C316.977692,528.910706 296.966522,528.991333 276.955475,528.963257 
	C275.398193,528.961060 273.841919,528.197510 272.033386,527.472839 
z"/>
<path fill="#03A9F4" opacity="1.000000" stroke="none" 
	d="
M706.967712,299.531433 
	C691.148499,299.905334 675.085510,299.888550 659.024475,300.059814 
	C653.254089,300.121338 647.488525,300.635681 641.283691,300.921021 
	C642.795715,300.255859 644.731689,299.100494 646.695862,299.050415 
	C664.278076,298.601990 681.864624,298.298340 699.451538,298.095215 
	C701.871277,298.067291 704.300049,298.822418 706.967712,299.531433 
z"/>
<path fill="#03A9F4" opacity="1.000000" stroke="none" 
	d="
M416.022705,361.518005 
	C400.776520,361.557983 385.311737,361.196442 369.845551,361.119476 
	C367.113861,361.105865 364.376251,362.280151 361.234161,362.897461 
	C363.335236,361.899658 365.812469,360.152832 368.357056,360.048401 
	C381.312439,359.517029 394.285004,359.281036 407.252136,359.256775 
	C410.101440,359.251434 412.953094,360.527466 416.022705,361.518005 
z"/>
<path fill="#03A9F4" opacity="1.000000" stroke="none" 
	d="
M513.843262,524.218384 
	C514.048035,511.282349 514.785828,498.087860 514.863159,484.889496 
	C514.900818,478.473053 513.703247,472.049408 513.062256,465.214447 
	C514.052734,467.104889 515.867859,469.396423 515.905823,471.717072 
	C516.158203,487.127869 516.099548,502.545593 515.940552,517.958984 
	C515.919800,519.964844 514.744812,521.958862 513.843262,524.218384 
z"/>
<path fill="#03A9F4" opacity="1.000000" stroke="none" 
	d="
M362.105103,625.339355 
	C380.383209,628.323364 398.864471,626.304749 417.761292,625.107727 
	C415.307343,626.088501 412.454926,627.827209 409.563019,627.895691 
	C396.627411,628.201477 383.678009,628.168945 370.739868,627.924683 
	C367.913696,627.871277 365.113373,626.448242 362.105103,625.339355 
z"/>
<path fill="#03A9F4" opacity="1.000000" stroke="none" 
	d="
M268.997650,466.001495 
	C268.337250,470.890594 267.126495,475.779114 267.120972,480.668945 
	C267.105225,494.581635 267.580872,508.494873 267.809021,522.858398 
	C267.169128,521.325806 266.094360,519.347412 266.075470,517.359009 
	C265.933899,502.462097 265.944702,487.562744 266.067810,472.665497 
	C266.084717,470.618317 266.983978,468.578461 268.001526,466.272217 
	C268.528290,466.009216 268.997650,466.001495 268.997650,466.001495 
z"/>
<path fill="#03A9F4" opacity="1.000000" stroke="none" 
	d="
M712.923096,319.579712 
	C712.850769,320.003143 712.421814,319.997742 712.207275,319.996521 
	C711.401428,314.509583 710.810120,309.023834 710.288086,303.093872 
	C711.236633,308.151855 712.115967,313.654053 712.923096,319.579712 
z"/>
<path fill="#03A9F4" opacity="1.000000" stroke="none" 
	d="
M351.543457,527.000610 
	C351.998779,527.380615 351.997528,527.758789 351.997772,528.420593 
	C348.307831,528.788025 344.616394,528.871826 340.467499,528.898315 
	C343.702332,528.226929 347.394623,527.612854 351.543457,527.000610 
z"/>
<path fill="#03A9F4" opacity="1.000000" stroke="none" 
	d="
M633.636597,305.920654 
	C632.818237,306.827850 631.699585,307.867859 630.206299,308.897644 
	C630.999939,307.942780 632.168091,306.998138 633.636597,305.920654 
z"/>
<path fill="#03A9F4" opacity="1.000000" stroke="none" 
	d="
M710.317688,302.313416 
	C709.373596,301.902771 708.292236,301.197449 707.176880,300.129517 
	C708.155396,300.517487 709.167847,301.268127 710.317688,302.313416 
z"/>
<path fill="#03A9F4" opacity="1.000000" stroke="none" 
	d="
M637.652588,302.991638 
	C637.165588,303.570862 636.380005,304.246002 635.248413,304.947784 
	C635.719604,304.345459 636.536865,303.716492 637.652588,302.991638 
z"/>
<path fill="#03A9F4" opacity="1.000000" stroke="none" 
	d="
M622.626099,313.947479 
	C622.154297,314.538910 621.385986,315.227142 620.270996,315.938263 
	C620.726013,315.322205 621.527832,314.683258 622.626099,313.947479 
z"/>
<path fill="#03A9F4" opacity="1.000000" stroke="none" 
	d="
M358.876129,621.426270 
	C359.522797,621.874023 360.229675,622.645752 360.950317,623.770020 
	C360.288177,623.331726 359.612244,622.540955 358.876129,621.426270 
z"/>
<path fill="#03A9F4" opacity="1.000000" stroke="none" 
	d="
M269.015808,525.363037 
	C269.832306,525.565979 270.780701,526.066223 271.793640,526.910645 
	C270.954742,526.723206 270.051270,526.191772 269.015808,525.363037 
z"/>
<path fill="#03A9F4" opacity="1.000000" stroke="none" 
	d="
M618.596558,316.915039 
	C618.119385,317.513550 617.344421,318.217529 616.216614,318.942322 
	C616.675415,318.315613 617.487183,317.668030 618.596558,316.915039 
z"/>
<path fill="#03A9F4" opacity="1.000000" stroke="none" 
	d="
M418.874268,363.712219 
	C418.087402,363.471375 417.179199,362.939087 416.216187,362.068237 
	C417.025238,362.293365 417.889099,362.857056 418.874268,363.712219 
z"/>
<path fill="#03A9F4" opacity="1.000000" stroke="none" 
	d="
M640.613098,300.932800 
	C640.139282,301.528381 639.366455,302.221252 638.243652,302.926819 
	C638.700439,302.303070 639.507263,301.666565 640.613098,300.932800 
z"/>
<path fill="#03A9F4" opacity="1.000000" stroke="none" 
	d="
M625.611267,311.794556 
	C625.116699,312.393066 624.323853,313.115601 623.190979,313.877808 
	C623.671631,313.251190 624.492371,312.584869 625.611267,311.794556 
z"/>
<path fill="#03A9F4" opacity="1.000000" stroke="none" 
	d="
M357.550842,616.926270 
	C358.121521,617.786926 358.532043,619.062195 358.914307,620.751343 
	C358.387573,619.890381 357.889160,618.615723 357.550842,616.926270 
z"/>
<path fill="#03A9F4" opacity="1.000000" stroke="none" 
	d="
M613.510315,320.581299 
	C613.376709,320.934021 612.934265,321.365692 612.181763,321.866638 
	C612.314941,321.510712 612.758179,321.085510 613.510315,320.581299 
z"/>
<path fill="#03A9F4" opacity="1.000000" stroke="none" 
	d="
M628.618286,309.694916 
	C628.450623,310.030243 627.960510,310.425720 627.156799,310.888489 
	C627.327393,310.555511 627.811584,310.155304 628.618286,309.694916 
z"/>
<path fill="#03A9F4" opacity="1.000000" stroke="none" 
	d="
M711.376587,656.101562 
	C711.328796,655.678833 711.569397,655.072510 712.036377,654.221436 
	C712.063477,654.623718 711.864136,655.270874 711.376587,656.101562 
z"/>
<path fill="#03A9F4" opacity="1.000000" stroke="none" 
	d="
M631.970947,657.998047 
	C632.133301,658.334473 632.295654,658.670898 632.453125,659.295044 
	C632.033020,659.231262 631.617859,658.879822 631.381592,658.256958 
	C631.560547,657.985474 631.970947,657.998047 631.970947,657.998047 
z"/>
<path fill="#03A9F4" opacity="1.000000" stroke="none" 
	d="
M267.717163,523.336914 
	C268.061310,523.506897 268.433655,524.004395 268.877655,524.809692 
	C268.548004,524.633118 268.146667,524.148865 267.717163,523.336914 
z"/>
<path fill="#03A9F4" opacity="1.000000" stroke="none" 
	d="
M629.703613,655.387146 
	C629.991150,655.587524 630.380798,656.100708 630.811890,656.945435 
	C630.504211,656.751343 630.154968,656.225647 629.703613,655.387146 
z"/>
<path fill="#03A9F4" opacity="1.000000" stroke="none" 
	d="
M419.317017,624.143555 
	C419.275421,623.956787 419.521545,623.665588 419.985046,623.187561 
	C420.003204,623.346863 419.803955,623.692993 419.317017,624.143555 
z"/>
<path fill="#03A9F4" opacity="1.000000" stroke="none" 
	d="
M619.711426,316.001770 
	C619.736816,316.176910 619.489014,316.427307 619.024536,316.832458 
	C619.018066,316.683807 619.228088,316.380432 619.711426,316.001770 
z"/>
<path fill="#03A9F4" opacity="1.000000" stroke="none" 
	d="
M418.290710,625.086060 
	C418.264069,624.910400 418.524628,624.637756 419.010010,624.192017 
	C419.015900,624.342346 418.796906,624.665649 418.290710,625.086060 
z"/>
<path fill="#03A9F4" opacity="1.000000" stroke="none" 
	d="
M629.701660,308.910278 
	C629.727600,309.086456 629.457520,309.351013 628.955688,309.778809 
	C628.951172,309.627594 629.178467,309.313141 629.701660,308.910278 
z"/>
<path fill="#03A9F4" opacity="1.000000" stroke="none" 
	d="
M512.618652,525.382874 
	C512.542053,525.159180 512.764893,524.847961 513.237061,524.386108 
	C513.296936,524.588745 513.107544,524.942078 512.618652,525.382874 
z"/>
<path fill="#03A9F4" opacity="1.000000" stroke="none" 
	d="
M631.786255,657.805298 
	C631.970947,657.998047 631.560547,657.985474 631.355225,657.986206 
	C631.044312,657.848694 630.938843,657.710388 630.753418,657.321655 
	C630.982849,657.251770 631.292175,657.432190 631.786255,657.805298 
z"/>
<path fill="#03A9F4" opacity="1.000000" stroke="none" 
	d="
M268.993744,465.732941 
	C268.997650,466.001495 268.528290,466.009216 268.293701,466.015564 
	C268.196960,465.721069 268.334839,465.420227 268.715302,465.023804 
	C268.968567,465.106934 268.979187,465.285645 268.993744,465.732941 
z"/>
<path fill="#03A9F4" opacity="1.000000" stroke="none" 
	d="
M611.726074,321.961731 
	C611.725830,322.127106 611.439514,322.377075 610.907471,322.771851 
	C610.921143,322.626526 611.180603,322.336426 611.726074,321.961731 
z"/>
<path fill="#03A9F4" opacity="1.000000" stroke="none" 
	d="
M614.615051,319.813354 
	C614.667114,319.979340 614.427246,320.271484 613.982300,320.756958 
	C613.959229,320.613403 614.141235,320.276428 614.615051,319.813354 
z"/>
</svg>